<svg width="280" height="119" viewBox="0 0 280 119" fill="none" xmlns="http://www.w3.org/2000/svg">
<path d="M2.592 7.6H1.008V6.688H2.592V6.08C2.592 5.42933 2.704 4.896 2.928 4.48C3.16267 4.064 3.48267 3.76 3.888 3.568C4.29333 3.36533 4.75733 3.264 5.28 3.264C5.73867 3.264 6.16533 3.34933 6.56 3.52C6.96533 3.68 7.30133 3.93067 7.568 4.272L6.96 5.12L6.864 5.248L6.768 5.184C6.75733 5.09867 6.736 5.01333 6.704 4.928C6.672 4.84267 6.59733 4.736 6.48 4.608C6.30933 4.45867 6.13867 4.352 5.968 4.288C5.79733 4.224 5.57867 4.192 5.312 4.192C5.00267 4.192 4.72533 4.256 4.48 4.384C4.23467 4.50133 4.04267 4.69867 3.904 4.976C3.76533 5.24267 3.696 5.61067 3.696 6.08V6.688H6.096V7.6H3.696V14H2.592V7.6ZM9.152 14V6.688H10.272V7.984C10.464 7.68533 10.688 7.42933 10.944 7.216C11.2 6.992 11.4827 6.82133 11.792 6.704C12.1013 6.576 12.4213 6.512 12.752 6.512C13.1573 6.512 13.52 6.61333 13.84 6.816C14.16 7.01867 14.416 7.344 14.608 7.792C14.8 8.24 14.896 8.832 14.896 9.568V14H13.776V9.6C13.776 9.088 13.7173 8.68267 13.6 8.384C13.4827 8.07467 13.3227 7.856 13.12 7.728C12.9173 7.58933 12.688 7.52 12.432 7.52C12.1867 7.52 11.936 7.57333 11.68 7.68C11.4347 7.78667 11.2053 7.94133 10.992 8.144C10.7787 8.336 10.6027 8.57067 10.464 8.848C10.336 9.12533 10.272 9.44 10.272 9.792V14H9.152ZM120.96 50.672V40.688H122.128V42.128C122.245 41.7547 122.411 41.4507 122.624 41.216C122.848 40.9813 123.104 40.8107 123.392 40.704C123.691 40.5867 124.011 40.528 124.352 40.528C124.757 40.528 125.141 40.608 125.504 40.768C125.877 40.9173 126.203 41.1467 126.48 41.456C126.768 41.7653 126.992 42.1547 127.152 42.624C127.323 43.0933 127.408 43.648 127.408 44.288C127.408 44.928 127.317 45.4933 127.136 45.984C126.965 46.4747 126.731 46.8853 126.432 47.216C126.144 47.536 125.813 47.7813 125.44 47.952C125.077 48.112 124.704 48.192 124.32 48.192C124.032 48.192 123.749 48.144 123.472 48.048C123.205 47.9627 122.96 47.8347 122.736 47.664C122.512 47.4827 122.315 47.2747 122.144 47.04V50.672H120.96ZM124.128 47.168C124.384 47.168 124.635 47.1253 124.88 47.04C125.125 46.944 125.349 46.7893 125.552 46.576C125.755 46.3627 125.915 46.0747 126.032 45.712C126.149 45.3387 126.208 44.88 126.208 44.336C126.208 43.7493 126.133 43.2533 125.984 42.848C125.835 42.432 125.616 42.112 125.328 41.888C125.051 41.664 124.709 41.5413 124.304 41.52C124.005 41.4987 123.723 41.5413 123.456 41.648C123.2 41.7547 122.971 41.9307 122.768 42.176C122.565 42.4213 122.405 42.7467 122.288 43.152C122.181 43.5467 122.128 44.0267 122.128 44.592C122.139 44.9333 122.176 45.2427 122.24 45.52C122.304 45.7973 122.395 46.0427 122.512 46.256C122.629 46.4587 122.768 46.6293 122.928 46.768C123.088 46.896 123.269 46.9973 123.472 47.072C123.675 47.136 123.893 47.168 124.128 47.168ZM131.536 48.176C131.248 48.176 130.976 48.1333 130.72 48.048C130.464 47.9627 130.229 47.8347 130.016 47.664C129.813 47.4827 129.637 47.2587 129.488 46.992C129.339 46.7253 129.221 46.4053 129.136 46.032C129.061 45.6587 129.024 45.2373 129.024 44.768L129.04 40.688H130.16V44.768C130.16 45.2267 130.203 45.616 130.288 45.936C130.373 46.256 130.491 46.512 130.64 46.704C130.8 46.896 130.981 47.0347 131.184 47.12C131.387 47.2053 131.6 47.248 131.824 47.248C132.08 47.248 132.325 47.2 132.56 47.104C132.795 46.9973 133.003 46.8427 133.184 46.64C133.376 46.4373 133.525 46.176 133.632 45.856C133.739 45.536 133.792 45.1573 133.792 44.72V40.688H134.912V46.864C134.912 47.056 134.917 47.248 134.928 47.44C134.949 47.6213 134.997 47.808 135.072 48H133.968C133.915 47.872 133.877 47.7493 133.856 47.632C133.835 47.504 133.819 47.376 133.808 47.248C133.808 47.12 133.808 46.9973 133.808 46.88C133.691 47.0827 133.552 47.264 133.392 47.424C133.232 47.584 133.051 47.7227 132.848 47.84C132.656 47.9467 132.448 48.0267 132.224 48.08C132.011 48.144 131.781 48.176 131.536 48.176ZM140.256 48.176C139.957 48.176 139.675 48.128 139.408 48.032C139.141 47.9467 138.896 47.8187 138.672 47.648C138.459 47.4773 138.267 47.2747 138.096 47.04L137.696 48H136.96V37.36H138.112H138.272V37.472C138.208 37.536 138.165 37.6053 138.144 37.68C138.133 37.7547 138.128 37.8827 138.128 38.064V41.808C138.245 41.616 138.384 41.44 138.544 41.28C138.704 41.12 138.88 40.9813 139.072 40.864C139.264 40.7467 139.467 40.6613 139.68 40.608C139.893 40.544 140.101 40.512 140.304 40.512C140.752 40.512 141.157 40.592 141.52 40.752C141.893 40.9013 142.213 41.136 142.48 41.456C142.747 41.7653 142.949 42.1547 143.088 42.624C143.237 43.0933 143.312 43.6427 143.312 44.272C143.312 44.9227 143.227 45.4933 143.056 45.984C142.885 46.4747 142.651 46.8853 142.352 47.216C142.064 47.536 141.739 47.776 141.376 47.936C141.013 48.096 140.64 48.176 140.256 48.176ZM140.112 47.152C140.368 47.152 140.613 47.104 140.848 47.008C141.093 46.912 141.312 46.7573 141.504 46.544C141.696 46.32 141.845 46.0267 141.952 45.664C142.069 45.3013 142.128 44.8587 142.128 44.336C142.128 43.856 142.08 43.44 141.984 43.088C141.888 42.7253 141.749 42.4267 141.568 42.192C141.397 41.9573 141.189 41.7867 140.944 41.68C140.699 41.5627 140.432 41.504 140.144 41.504C139.749 41.504 139.397 41.6267 139.088 41.872C138.789 42.1067 138.555 42.4427 138.384 42.88C138.213 43.3067 138.128 43.8027 138.128 44.368C138.128 44.784 138.165 45.1627 138.24 45.504C138.315 45.8453 138.427 46.1387 138.576 46.384C138.736 46.6293 138.939 46.8213 139.184 46.96C139.44 47.088 139.749 47.152 140.112 47.152ZM17.264 82V81.072H19.424V72.288H17.36V71.36H20.592V81.072H22.736V82H17.264ZM28.352 82.16C27.8187 82.16 27.3333 82.08 26.896 81.92C26.4587 81.7493 26.08 81.504 25.76 81.184C25.4507 80.864 25.2107 80.4693 25.04 80C24.8693 79.52 24.784 78.976 24.784 78.368C24.784 77.7493 24.8693 77.2 25.04 76.72C25.2213 76.24 25.4613 75.84 25.76 75.52C26.0693 75.1893 26.4267 74.9387 26.832 74.768C27.248 74.5973 27.6853 74.512 28.144 74.512C28.56 74.512 28.9493 74.5813 29.312 74.72C29.6747 74.8587 29.9893 75.072 30.256 75.36C30.5227 75.6373 30.7307 75.9947 30.88 76.432C31.04 76.8693 31.12 77.3867 31.12 77.984C31.12 78.0693 31.1147 78.16 31.104 78.256C31.104 78.3413 31.0987 78.4267 31.088 78.512H25.888C25.9093 78.9813 25.9893 79.392 26.128 79.744C26.2667 80.0853 26.448 80.368 26.672 80.592C26.896 80.8053 27.152 80.9653 27.44 81.072C27.7387 81.1787 28.0533 81.232 28.384 81.232C28.64 81.232 28.88 81.2053 29.104 81.152C29.328 81.088 29.536 80.9973 29.728 80.88C29.9307 80.752 30.112 80.5973 30.272 80.416L30.912 81.04C30.7093 81.2853 30.4747 81.4933 30.208 81.664C29.952 81.8347 29.6693 81.9573 29.36 82.032C29.0507 82.1173 28.7147 82.16 28.352 82.16ZM25.936 77.616H29.952C29.952 77.2747 29.904 76.9707 29.808 76.704C29.7227 76.4267 29.5947 76.192 29.424 76C29.264 75.7973 29.0667 75.648 28.832 75.552C28.608 75.4453 28.352 75.392 28.064 75.392C27.808 75.392 27.5627 75.4347 27.328 75.52C27.104 75.6053 26.896 75.744 26.704 75.936C26.512 76.1173 26.3467 76.3467 26.208 76.624C26.08 76.9013 25.9893 77.232 25.936 77.616ZM36.784 82.112C36.3147 82.112 35.9307 82.032 35.632 81.872C35.3333 81.712 35.104 81.4667 34.944 81.136C34.784 80.7947 34.6773 80.368 34.624 79.856C34.5813 79.344 34.5707 78.736 34.592 78.032L34.784 72.816L35.984 72.672L36.144 72.656L36.16 72.768C36.1067 72.8427 36.0587 72.9173 36.016 72.992C35.984 73.0667 35.9573 73.1947 35.936 73.376L35.792 75.184L35.84 75.472L35.728 78.112C35.696 78.9227 35.7173 79.552 35.792 80C35.8667 80.4373 36 80.7413 36.192 80.912C36.384 81.072 36.64 81.152 36.96 81.152C37.312 81.152 37.6213 81.0827 37.888 80.944C38.1653 80.8053 38.4533 80.6293 38.752 80.416L39.104 81.328C38.7413 81.5947 38.368 81.792 37.984 81.92C37.6 82.048 37.2 82.112 36.784 82.112ZM33.12 74.688H38.384V75.632H33.12V74.688Z" fill="#E4BAFF"/>
<path d="M62.32 15.664C61.4347 15.248 60.6613 14.6933 60 14C59.3493 13.296 58.8427 12.5067 58.48 11.632C58.128 10.7467 57.952 9.82933 57.952 8.88C57.952 7.93067 58.128 7.02933 58.48 6.176C58.832 5.312 59.328 4.544 59.968 3.872C60.608 3.18933 61.36 2.64533 62.224 2.24L62.528 3.232C62.016 3.50933 61.5467 3.85067 61.12 4.256C60.704 4.66133 60.3413 5.10933 60.032 5.6C59.7333 6.09067 59.4987 6.61867 59.328 7.184C59.168 7.74933 59.088 8.33067 59.088 8.928C59.088 9.52533 59.168 10.1067 59.328 10.672C59.4987 11.2373 59.7387 11.776 60.048 12.288C60.3573 12.7893 60.7253 13.248 61.152 13.664C61.5893 14.0693 62.08 14.416 62.624 14.704L62.32 15.664ZM67.808 26.072C67.5627 26.072 67.344 25.9813 67.152 25.8C66.96 25.6187 66.864 25.4053 66.864 25.16C66.864 24.904 66.96 24.6853 67.152 24.504C67.344 24.3227 67.5627 24.232 67.808 24.232C68.0533 24.232 68.272 24.3227 68.464 24.504C68.6667 24.6853 68.768 24.904 68.768 25.16C68.768 25.4053 68.672 25.6187 68.48 25.8C68.288 25.9813 68.064 26.072 67.808 26.072ZM67.808 31.176C67.5413 31.176 67.3173 31.0907 67.136 30.92C66.9547 30.7387 66.864 30.52 66.864 30.264C66.864 30.008 66.96 29.7893 67.152 29.608C67.344 29.4267 67.5627 29.336 67.808 29.336C68.0533 29.336 68.272 29.4267 68.464 29.608C68.6667 29.7893 68.768 30.008 68.768 30.264C68.768 30.5093 68.672 30.7227 68.48 30.904C68.2987 31.0853 68.0747 31.176 67.808 31.176ZM123.184 33.688L122.64 33.208C122.939 32.9307 123.184 32.632 123.376 32.312C123.579 31.992 123.68 31.7307 123.68 31.528C123.68 31.4213 123.637 31.32 123.552 31.224C123.477 31.1387 123.381 31.0533 123.264 30.968C123.157 30.8827 123.061 30.7867 122.976 30.68C122.901 30.5627 122.864 30.4347 122.864 30.296C122.864 30.0293 122.949 29.8053 123.12 29.624C123.301 29.4427 123.531 29.352 123.808 29.352C124.085 29.352 124.336 29.4747 124.56 29.72C124.784 29.9653 124.896 30.2853 124.896 30.68C124.896 30.8933 124.859 31.112 124.784 31.336C124.72 31.5707 124.613 31.8107 124.464 32.056C124.325 32.312 124.149 32.5733 123.936 32.84C123.723 33.1173 123.472 33.4 123.184 33.688ZM107.808 43.072C107.563 43.072 107.344 42.9813 107.152 42.8C106.96 42.6187 106.864 42.4053 106.864 42.16C106.864 41.904 106.96 41.6853 107.152 41.504C107.344 41.3227 107.563 41.232 107.808 41.232C108.053 41.232 108.272 41.3227 108.464 41.504C108.667 41.6853 108.768 41.904 108.768 42.16C108.768 42.4053 108.672 42.6187 108.48 42.8C108.288 42.9813 108.064 43.072 107.808 43.072ZM107.808 48.176C107.541 48.176 107.317 48.0907 107.136 47.92C106.955 47.7387 106.864 47.52 106.864 47.264C106.864 47.008 106.96 46.7893 107.152 46.608C107.344 46.4267 107.563 46.336 107.808 46.336C108.053 46.336 108.272 46.4267 108.464 46.608C108.667 46.7893 108.768 47.008 108.768 47.264C108.768 47.5093 108.672 47.7227 108.48 47.904C108.299 48.0853 108.075 48.176 107.808 48.176ZM194.128 49.664L193.824 48.704C194.368 48.416 194.853 48.0693 195.28 47.664C195.717 47.248 196.091 46.7893 196.4 46.288C196.709 45.776 196.944 45.2373 197.104 44.672C197.275 44.1067 197.36 43.5253 197.36 42.928C197.36 42.3307 197.275 41.7493 197.104 41.184C196.944 40.6187 196.709 40.0907 196.4 39.6C196.101 39.1093 195.739 38.6613 195.312 38.256C194.896 37.8507 194.432 37.5093 193.92 37.232L194.224 36.24C195.088 36.6453 195.84 37.1893 196.48 37.872C197.12 38.544 197.616 39.312 197.968 40.176C198.32 41.0293 198.496 41.9307 198.496 42.88C198.496 43.8293 198.315 44.7467 197.952 45.632C197.6 46.5067 197.093 47.296 196.432 48C195.781 48.6933 195.013 49.248 194.128 49.664ZM5.936 66.52C5.168 66.52 4.528 66.44 4.016 66.28C3.504 66.1307 3.12 65.8533 2.864 65.448C2.61867 65.0427 2.512 64.4667 2.544 63.72L2.608 62.12C2.608 61.6507 2.54933 61.288 2.432 61.032C2.32533 60.7653 2.16533 60.584 1.952 60.488C1.73867 60.3813 1.47733 60.328 1.168 60.328H0.848V59.432H1.152C1.48267 59.432 1.75467 59.3733 1.968 59.256C2.192 59.1387 2.35733 58.9573 2.464 58.712C2.58133 58.456 2.64 58.1253 2.64 57.72L2.608 56.568C2.608 55.9493 2.71467 55.4373 2.928 55.032C3.152 54.616 3.47733 54.3067 3.904 54.104C4.34133 53.8907 4.88 53.784 5.52 53.784H6.528V54.696H5.216C4.72533 54.696 4.352 54.84 4.096 55.128C3.85067 55.4053 3.728 55.8267 3.728 56.392L3.76 57.512C3.76 57.9067 3.70667 58.2587 3.6 58.568C3.504 58.8667 3.34933 59.128 3.136 59.352C2.93333 59.5653 2.67733 59.7413 2.368 59.88C2.67733 59.976 2.928 60.136 3.12 60.36C3.32267 60.5733 3.472 60.8453 3.568 61.176C3.67467 61.5067 3.728 61.9013 3.728 62.36L3.68 63.704C3.68 64.184 3.74933 64.568 3.888 64.856C4.02667 65.1333 4.24533 65.3307 4.544 65.448C4.84267 65.5653 5.22667 65.624 5.696 65.624H6.512V66.52H5.936ZM88.72 75.776V74.8H95.296V75.776H88.72ZM88.72 79.088V78.112H95.296V79.088H88.72ZM174.32 83.664C173.435 83.248 172.661 82.6933 172 82C171.349 81.296 170.843 80.5067 170.48 79.632C170.128 78.7467 169.952 77.8293 169.952 76.88C169.952 75.9307 170.128 75.0293 170.48 74.176C170.832 73.312 171.328 72.544 171.968 71.872C172.608 71.1893 173.36 70.6453 174.224 70.24L174.528 71.232C174.016 71.5093 173.547 71.8507 173.12 72.256C172.704 72.6613 172.341 73.1093 172.032 73.6C171.733 74.0907 171.499 74.6187 171.328 75.184C171.168 75.7493 171.088 76.3307 171.088 76.928C171.088 77.5253 171.168 78.1067 171.328 78.672C171.499 79.2373 171.739 79.776 172.048 80.288C172.357 80.7893 172.725 81.248 173.152 81.664C173.589 82.0693 174.08 82.416 174.624 82.704L174.32 83.664ZM178.096 83.424V71.28H182.672V72.24H179.12V82.512H182.688V83.424H178.096ZM238.688 83.424H234.096V82.512H237.664V72.24H234.112V71.28H238.688V83.424ZM242.128 83.664L241.824 82.704C242.368 82.416 242.853 82.0693 243.28 81.664C243.717 81.248 244.091 80.7893 244.4 80.288C244.709 79.776 244.944 79.2373 245.104 78.672C245.275 78.1067 245.36 77.5253 245.36 76.928C245.36 76.3307 245.275 75.7493 245.104 75.184C244.944 74.6187 244.709 74.0907 244.4 73.6C244.101 73.1093 243.739 72.6613 243.312 72.256C242.896 71.8507 242.432 71.5093 241.92 71.232L242.224 70.24C243.088 70.6453 243.84 71.1893 244.48 71.872C245.12 72.544 245.616 73.312 245.968 74.176C246.32 75.0293 246.496 75.9307 246.496 76.88C246.496 77.8293 246.315 78.7467 245.952 79.632C245.6 80.5067 245.093 81.296 244.432 82C243.781 82.6933 243.013 83.248 242.128 83.664ZM250.096 83.424V71.28H254.672V72.24H251.12V82.512H254.688V83.424H250.096ZM270.688 83.424H266.096V82.512H269.664V72.24H266.112V71.28H270.688V83.424ZM275.184 84.688L274.64 84.208C274.939 83.9307 275.184 83.632 275.376 83.312C275.579 82.992 275.68 82.7307 275.68 82.528C275.68 82.4213 275.637 82.32 275.552 82.224C275.477 82.1387 275.381 82.0533 275.264 81.968C275.157 81.8827 275.061 81.7867 274.976 81.68C274.901 81.5627 274.864 81.4347 274.864 81.296C274.864 81.1147 274.901 80.9547 274.976 80.816C275.061 80.6773 275.173 80.5653 275.312 80.48C275.461 80.3947 275.627 80.352 275.808 80.352C276.085 80.352 276.336 80.4747 276.56 80.72C276.784 80.9653 276.896 81.2853 276.896 81.68C276.896 81.9573 276.832 82.256 276.704 82.576C276.576 82.896 276.384 83.2267 276.128 83.568C275.883 83.92 275.568 84.2933 275.184 84.688ZM275.808 77.072C275.563 77.072 275.344 76.9813 275.152 76.8C274.96 76.6187 274.864 76.4053 274.864 76.16C274.864 75.904 274.96 75.6853 275.152 75.504C275.344 75.3227 275.563 75.232 275.808 75.232C276.053 75.232 276.272 75.3227 276.464 75.504C276.667 75.6853 276.768 75.904 276.768 76.16C276.768 76.4053 276.672 76.6187 276.48 76.8C276.288 76.9813 276.064 77.072 275.808 77.072ZM70.32 100.664C69.4347 100.248 68.6613 99.6933 68 99C67.3493 98.296 66.8427 97.5067 66.48 96.632C66.128 95.7467 65.952 94.8293 65.952 93.88C65.952 92.9307 66.128 92.0293 66.48 91.176C66.832 90.312 67.328 89.544 67.968 88.872C68.608 88.1893 69.36 87.6453 70.224 87.24L70.528 88.232C70.016 88.5093 69.5467 88.8507 69.12 89.256C68.704 89.6613 68.3413 90.1093 68.032 90.6C67.7333 91.0907 67.4987 91.6187 67.328 92.184C67.168 92.7493 67.088 93.3307 67.088 93.928C67.088 94.5253 67.168 95.1067 67.328 95.672C67.4987 96.2373 67.7387 96.776 68.048 97.288C68.3573 97.7893 68.7253 98.248 69.152 98.664C69.5893 99.0693 70.08 99.416 70.624 99.704L70.32 100.664ZM104.72 92.776V91.8H111.296V92.776H104.72ZM104.72 96.088V95.112H111.296V96.088H104.72ZM112.72 92.776V91.8H119.296V92.776H112.72ZM112.72 96.088V95.112H119.296V96.088H112.72ZM210.128 100.664L209.824 99.704C210.368 99.416 210.853 99.0693 211.28 98.664C211.717 98.248 212.091 97.7893 212.4 97.288C212.709 96.776 212.944 96.2373 213.104 95.672C213.275 95.1067 213.36 94.5253 213.36 93.928C213.36 93.3307 213.275 92.7493 213.104 92.184C212.944 91.6187 212.709 91.0907 212.4 90.6C212.101 90.1093 211.739 89.6613 211.312 89.256C210.896 88.8507 210.432 88.5093 209.92 88.232L210.224 87.24C211.088 87.6453 211.84 88.1893 212.48 88.872C213.12 89.544 213.616 90.312 213.968 91.176C214.32 92.0293 214.496 92.9307 214.496 93.88C214.496 94.8293 214.315 95.7467 213.952 96.632C213.6 97.5067 213.093 98.296 212.432 99C211.781 99.6933 211.013 100.248 210.128 100.664ZM219.184 101.688L218.64 101.208C218.939 100.931 219.184 100.632 219.376 100.312C219.579 99.992 219.68 99.7307 219.68 99.528C219.68 99.4213 219.637 99.32 219.552 99.224C219.477 99.1387 219.381 99.0533 219.264 98.968C219.157 98.8827 219.061 98.7867 218.976 98.68C218.901 98.5627 218.864 98.4347 218.864 98.296C218.864 98.1147 218.901 97.9547 218.976 97.816C219.061 97.6773 219.173 97.5653 219.312 97.48C219.461 97.3947 219.627 97.352 219.808 97.352C220.085 97.352 220.336 97.4747 220.56 97.72C220.784 97.9653 220.896 98.2853 220.896 98.68C220.896 98.9573 220.832 99.256 220.704 99.576C220.576 99.896 220.384 100.227 220.128 100.568C219.883 100.92 219.568 101.293 219.184 101.688ZM219.808 94.072C219.563 94.072 219.344 93.9813 219.152 93.8C218.96 93.6187 218.864 93.4053 218.864 93.16C218.864 92.904 218.96 92.6853 219.152 92.504C219.344 92.3227 219.563 92.232 219.808 92.232C220.053 92.232 220.272 92.3227 220.464 92.504C220.667 92.6853 220.768 92.904 220.768 93.16C220.768 93.4053 220.672 93.6187 220.48 93.8C220.288 93.9813 220.064 94.072 219.808 94.072ZM1.456 117.52H0.88V116.624H1.696C2.176 116.624 2.56 116.565 2.848 116.448C3.14667 116.331 3.36533 116.133 3.504 115.856C3.64267 115.568 3.712 115.184 3.712 114.704L3.664 113.36C3.664 112.901 3.712 112.507 3.808 112.176C3.91467 111.845 4.06933 111.573 4.272 111.36C4.47467 111.136 4.72533 110.976 5.024 110.88C4.71467 110.741 4.45333 110.565 4.24 110.352C4.03733 110.128 3.88267 109.867 3.776 109.568C3.68 109.259 3.632 108.907 3.632 108.512L3.664 107.392C3.664 106.827 3.54133 106.405 3.296 106.128C3.05067 105.84 2.67733 105.696 2.176 105.696H0.864V104.784H1.872C2.52267 104.784 3.06133 104.891 3.488 105.104C3.91467 105.307 4.23467 105.616 4.448 106.032C4.672 106.437 4.784 106.949 4.784 107.568L4.752 108.72C4.752 109.125 4.80533 109.456 4.912 109.712C5.02933 109.957 5.2 110.139 5.424 110.256C5.648 110.373 5.92 110.432 6.24 110.432H6.544V111.328H6.224C5.92533 111.328 5.664 111.381 5.44 111.488C5.22667 111.584 5.06133 111.765 4.944 112.032C4.83733 112.288 4.784 112.651 4.784 113.12L4.848 114.72C4.88 115.467 4.77333 116.043 4.528 116.448C4.28267 116.853 3.89867 117.131 3.376 117.28C2.864 117.44 2.224 117.52 1.456 117.52Z" fill="white"/>
<path d="M24.608 14V6.688H25.664V7.408C25.7813 7.22667 25.9147 7.072 26.064 6.944C26.224 6.80533 26.3947 6.69867 26.576 6.624C26.768 6.54933 26.96 6.512 27.152 6.512C27.3653 6.512 27.5627 6.56 27.744 6.656C27.9253 6.74133 28.0747 6.864 28.192 7.024C28.32 7.184 28.4053 7.37067 28.448 7.584C28.544 7.37067 28.672 7.184 28.832 7.024C29.0027 6.864 29.1947 6.74133 29.408 6.656C29.632 6.56 29.8613 6.512 30.096 6.512C30.3413 6.512 30.5547 6.56 30.736 6.656C30.9173 6.752 31.0667 6.88533 31.184 7.056C31.3013 7.216 31.3867 7.41333 31.44 7.648C31.4933 7.872 31.5147 8.11733 31.504 8.384V14H30.448V8.816C30.448 8.368 30.416 8.04267 30.352 7.84C30.2987 7.63733 30.2187 7.50933 30.112 7.456C30.0053 7.392 29.888 7.36 29.76 7.36C29.5573 7.36 29.3653 7.456 29.184 7.648C29.0133 7.82933 28.8693 8.05867 28.752 8.336C28.6453 8.61333 28.592 8.89067 28.592 9.168V14H27.52V8.912C27.52 8.304 27.4613 7.89867 27.344 7.696C27.2373 7.49333 27.0293 7.392 26.72 7.392C26.6027 7.392 26.48 7.43467 26.352 7.52C26.2347 7.59467 26.1227 7.70667 26.016 7.856C25.9093 7.99467 25.824 8.17067 25.76 8.384C25.696 8.59733 25.664 8.84267 25.664 9.12V14H24.608ZM35.376 14.176C34.544 14.176 33.904 13.9893 33.456 13.616C33.008 13.232 32.784 12.7467 32.784 12.16C32.784 11.7653 32.88 11.4133 33.072 11.104C33.264 10.784 33.5253 10.5173 33.856 10.304C34.1973 10.08 34.592 9.90933 35.04 9.792C35.488 9.67467 35.9627 9.616 36.464 9.616C36.6453 9.616 36.8267 9.62133 37.008 9.632C37.2 9.632 37.3973 9.64267 37.6 9.664C37.8133 9.67467 38.032 9.696 38.256 9.728L38.288 10.608C38.096 10.576 37.8987 10.5547 37.696 10.544C37.504 10.5227 37.312 10.5067 37.12 10.496C36.928 10.4853 36.7413 10.48 36.56 10.48C36.176 10.48 35.824 10.512 35.504 10.576C35.184 10.64 34.9067 10.736 34.672 10.864C34.4373 10.992 34.256 11.1573 34.128 11.36C34 11.5627 33.936 11.808 33.936 12.096C33.936 12.32 33.9733 12.512 34.048 12.672C34.1333 12.8213 34.2453 12.944 34.384 13.04C34.5227 13.1253 34.6827 13.1893 34.864 13.232C35.056 13.2747 35.264 13.296 35.488 13.296C35.904 13.296 36.272 13.232 36.592 13.104C36.9227 12.9653 37.2 12.768 37.424 12.512C37.6587 12.256 37.8347 11.9413 37.952 11.568C38.0693 11.1947 38.128 10.768 38.128 10.288C38.128 9.56267 38.0427 8.99733 37.872 8.592C37.7013 8.18667 37.4453 7.89867 37.104 7.728C36.7733 7.55733 36.3467 7.472 35.824 7.472C35.472 7.472 35.1253 7.54133 34.784 7.68C34.4427 7.808 34.1333 8.01067 33.856 8.288L33.296 7.552C33.6373 7.21067 34.032 6.95467 34.48 6.784C34.928 6.61333 35.4027 6.528 35.904 6.528C36.384 6.528 36.8213 6.58667 37.216 6.704C37.6107 6.82133 37.9467 7.01867 38.224 7.296C38.512 7.56267 38.7307 7.92533 38.88 8.384C39.04 8.84267 39.12 9.41867 39.12 10.112V14H37.872V12.88C37.7333 13.1467 37.5627 13.3653 37.36 13.536C37.168 13.7067 36.96 13.84 36.736 13.936C36.512 14.0213 36.2827 14.08 36.048 14.112C35.8133 14.1547 35.5893 14.176 35.376 14.176ZM41.6 14V13.072H43.472V7.616H41.696V6.688H44.624V13.072H46.336V14H41.6ZM43.984 5.152C43.76 5.152 43.568 5.072 43.408 4.912C43.248 4.752 43.168 4.56 43.168 4.336C43.168 4.10133 43.2427 3.904 43.392 3.744C43.552 3.584 43.7493 3.504 43.984 3.504C44.208 3.504 44.4 3.58933 44.56 3.76C44.7307 3.92 44.816 4.112 44.816 4.336C44.816 4.56 44.7307 4.752 44.56 4.912C44.4 5.072 44.208 5.152 43.984 5.152ZM49.152 14V6.688H50.272V7.984C50.464 7.68533 50.688 7.42933 50.944 7.216C51.2 6.992 51.4827 6.82133 51.792 6.704C52.1013 6.576 52.4213 6.512 52.752 6.512C53.1573 6.512 53.52 6.61333 53.84 6.816C54.16 7.01867 54.416 7.344 54.608 7.792C54.8 8.24 54.896 8.832 54.896 9.568V14H53.776V9.6C53.776 9.088 53.7173 8.68267 53.6 8.384C53.4827 8.07467 53.3227 7.856 53.12 7.728C52.9173 7.58933 52.688 7.52 52.432 7.52C52.1867 7.52 51.936 7.57333 51.68 7.68C51.4347 7.78667 51.2053 7.94133 50.992 8.144C50.7787 8.336 50.6027 8.57067 50.464 8.848C50.336 9.12533 50.272 9.44 50.272 9.792V14H49.152ZM49.168 71.36H50.272H50.432V71.472C50.368 71.536 50.3253 71.6053 50.304 71.68C50.2933 71.7547 50.288 71.8827 50.288 72.064V75.984C50.48 75.6853 50.704 75.4293 50.96 75.216C51.2267 74.992 51.504 74.8213 51.792 74.704C52.0907 74.576 52.3893 74.512 52.688 74.512C53.1253 74.512 53.5093 74.6133 53.84 74.816C54.1813 75.0187 54.4427 75.344 54.624 75.792C54.816 76.24 54.912 76.832 54.912 77.568V82H53.792V77.6C53.792 77.088 53.7333 76.6827 53.616 76.384C53.4987 76.0747 53.3387 75.856 53.136 75.728C52.9333 75.5893 52.704 75.52 52.448 75.52C52.256 75.52 52.0587 75.552 51.856 75.616C51.6533 75.68 51.456 75.776 51.264 75.904C51.0827 76.032 50.9173 76.192 50.768 76.384C50.6187 76.5653 50.5013 76.7733 50.416 77.008C50.3307 77.2427 50.288 77.504 50.288 77.792V82H49.168V71.36ZM59.376 82.176C58.544 82.176 57.904 81.9893 57.456 81.616C57.008 81.232 56.784 80.7467 56.784 80.16C56.784 79.7653 56.88 79.4133 57.072 79.104C57.264 78.784 57.5253 78.5173 57.856 78.304C58.1973 78.08 58.592 77.9093 59.04 77.792C59.488 77.6747 59.9627 77.616 60.464 77.616C60.6453 77.616 60.8267 77.6213 61.008 77.632C61.2 77.632 61.3973 77.6427 61.6 77.664C61.8133 77.6747 62.032 77.696 62.256 77.728L62.288 78.608C62.096 78.576 61.8987 78.5547 61.696 78.544C61.504 78.5227 61.312 78.5067 61.12 78.496C60.928 78.4853 60.7413 78.48 60.56 78.48C60.176 78.48 59.824 78.512 59.504 78.576C59.184 78.64 58.9067 78.736 58.672 78.864C58.4373 78.992 58.256 79.1573 58.128 79.36C58 79.5627 57.936 79.808 57.936 80.096C57.936 80.32 57.9733 80.512 58.048 80.672C58.1333 80.8213 58.2453 80.944 58.384 81.04C58.5227 81.1253 58.6827 81.1893 58.864 81.232C59.056 81.2747 59.264 81.296 59.488 81.296C59.904 81.296 60.272 81.232 60.592 81.104C60.9227 80.9653 61.2 80.768 61.424 80.512C61.6587 80.256 61.8347 79.9413 61.952 79.568C62.0693 79.1947 62.128 78.768 62.128 78.288C62.128 77.5627 62.0427 76.9973 61.872 76.592C61.7013 76.1867 61.4453 75.8987 61.104 75.728C60.7733 75.5573 60.3467 75.472 59.824 75.472C59.472 75.472 59.1253 75.5413 58.784 75.68C58.4427 75.808 58.1333 76.0107 57.856 76.288L57.296 75.552C57.6373 75.2107 58.032 74.9547 58.48 74.784C58.928 74.6133 59.4027 74.528 59.904 74.528C60.384 74.528 60.8213 74.5867 61.216 74.704C61.6107 74.8213 61.9467 75.0187 62.224 75.296C62.512 75.5627 62.7307 75.9253 62.88 76.384C63.04 76.8427 63.12 77.4187 63.12 78.112V82H61.872V80.88C61.7333 81.1467 61.5627 81.3653 61.36 81.536C61.168 81.7067 60.96 81.84 60.736 81.936C60.512 82.0213 60.2827 82.08 60.048 82.112C59.8133 82.1547 59.5893 82.176 59.376 82.176ZM68.016 82.16C67.6107 82.16 67.2213 82.1173 66.848 82.032C66.4853 81.9467 66.1387 81.8187 65.808 81.648C65.488 81.4773 65.1893 81.264 64.912 81.008L65.552 79.92L65.648 79.776L65.744 79.84C65.7653 79.9253 65.7867 80.016 65.808 80.112C65.84 80.1973 65.9147 80.304 66.032 80.432C66.256 80.656 66.5227 80.8427 66.832 80.992C67.152 81.1307 67.5573 81.2 68.048 81.2C68.4427 81.2 68.7733 81.152 69.04 81.056C69.3173 80.96 69.5307 80.8267 69.68 80.656C69.8293 80.4747 69.904 80.2667 69.904 80.032C69.904 79.872 69.872 79.7333 69.808 79.616C69.744 79.488 69.6373 79.3707 69.488 79.264C69.3493 79.1573 69.1627 79.0507 68.928 78.944C68.6933 78.8373 68.4053 78.7307 68.064 78.624C67.5093 78.464 67.024 78.2773 66.608 78.064C66.192 77.8507 65.872 77.6053 65.648 77.328C65.424 77.04 65.312 76.7147 65.312 76.352C65.312 75.9787 65.4133 75.6587 65.616 75.392C65.8187 75.1147 66.1173 74.9013 66.512 74.752C66.9173 74.592 67.4133 74.512 68 74.512C68.3413 74.512 68.6507 74.5387 68.928 74.592C69.2053 74.6347 69.4613 74.704 69.696 74.8C69.9307 74.896 70.144 75.0187 70.336 75.168C70.5387 75.3067 70.7307 75.472 70.912 75.664L70.256 76.464L70.144 76.592L70.064 76.512C70.0533 76.4267 70.0267 76.3467 69.984 76.272C69.952 76.1867 69.8773 76.0853 69.76 75.968C69.5147 75.776 69.2373 75.632 68.928 75.536C68.6187 75.4293 68.32 75.376 68.032 75.376C67.6053 75.376 67.2373 75.4507 66.928 75.6C66.6187 75.7493 66.464 75.9787 66.464 76.288C66.464 76.448 66.5173 76.608 66.624 76.768C66.7413 76.9173 66.9493 77.072 67.248 77.232C67.5467 77.3813 67.9733 77.536 68.528 77.696C69.136 77.888 69.6213 78.0853 69.984 78.288C70.3573 78.48 70.624 78.704 70.784 78.96C70.9547 79.216 71.04 79.52 71.04 79.872C71.04 80.2773 70.928 80.656 70.704 81.008C70.4907 81.36 70.16 81.6427 69.712 81.856C69.264 82.0587 68.6987 82.16 68.016 82.16ZM73.168 71.36H74.272H74.432V71.472C74.368 71.536 74.3253 71.6053 74.304 71.68C74.2933 71.7547 74.288 71.8827 74.288 72.064V75.984C74.48 75.6853 74.704 75.4293 74.96 75.216C75.2267 74.992 75.504 74.8213 75.792 74.704C76.0907 74.576 76.3893 74.512 76.688 74.512C77.1253 74.512 77.5093 74.6133 77.84 74.816C78.1813 75.0187 78.4427 75.344 78.624 75.792C78.816 76.24 78.912 76.832 78.912 77.568V82H77.792V77.6C77.792 77.088 77.7333 76.6827 77.616 76.384C77.4987 76.0747 77.3387 75.856 77.136 75.728C76.9333 75.5893 76.704 75.52 76.448 75.52C76.256 75.52 76.0587 75.552 75.856 75.616C75.6533 75.68 75.456 75.776 75.264 75.904C75.0827 76.032 74.9173 76.192 74.768 76.384C74.6187 76.5653 74.5013 76.7733 74.416 77.008C74.3307 77.2427 74.288 77.504 74.288 77.792V82H73.168V71.36ZM257.712 79.536L261.984 74.048L262.352 74.8L258.08 80.224L257.712 79.536ZM260 82.176C259.339 82.176 258.779 81.9787 258.32 81.584C257.861 81.1893 257.509 80.6133 257.264 79.856C257.029 79.088 256.912 78.16 256.912 77.072C256.912 76.016 257.029 75.1093 257.264 74.352C257.509 73.584 257.861 72.9973 258.32 72.592C258.779 72.176 259.339 71.968 260 71.968C260.661 71.968 261.221 72.176 261.68 72.592C262.139 72.9973 262.485 73.584 262.72 74.352C262.965 75.1093 263.088 76.016 263.088 77.072C263.088 78.16 262.965 79.088 262.72 79.856C262.485 80.6133 262.139 81.1893 261.68 81.584C261.221 81.9787 260.661 82.176 260 82.176ZM260 81.2C260.405 81.2 260.752 81.04 261.04 80.72C261.328 80.4 261.547 79.936 261.696 79.328C261.856 78.7093 261.936 77.9573 261.936 77.072C261.936 76.2293 261.856 75.504 261.696 74.896C261.547 74.2773 261.328 73.7973 261.04 73.456C260.752 73.1147 260.405 72.944 260 72.944C259.595 72.944 259.248 73.1147 258.96 73.456C258.672 73.7973 258.448 74.2773 258.288 74.896C258.139 75.504 258.064 76.2293 258.064 77.072C258.064 77.9573 258.139 78.7093 258.288 79.328C258.448 79.936 258.672 80.4 258.96 80.72C259.248 81.04 259.595 81.2 260 81.2Z" fill="#FF855F"/>
<path d="M19.376 31.176C18.544 31.176 17.904 30.9893 17.456 30.616C17.008 30.232 16.784 29.7467 16.784 29.16C16.784 28.7653 16.88 28.4133 17.072 28.104C17.264 27.784 17.5253 27.5173 17.856 27.304C18.1973 27.08 18.592 26.9093 19.04 26.792C19.488 26.6747 19.9627 26.616 20.464 26.616C20.6453 26.616 20.8267 26.6213 21.008 26.632C21.2 26.632 21.3973 26.6427 21.6 26.664C21.8133 26.6747 22.032 26.696 22.256 26.728L22.288 27.608C22.096 27.576 21.8987 27.5547 21.696 27.544C21.504 27.5227 21.312 27.5067 21.12 27.496C20.928 27.4853 20.7413 27.48 20.56 27.48C20.176 27.48 19.824 27.512 19.504 27.576C19.184 27.64 18.9067 27.736 18.672 27.864C18.4373 27.992 18.256 28.1573 18.128 28.36C18 28.5627 17.936 28.808 17.936 29.096C17.936 29.32 17.9733 29.512 18.048 29.672C18.1333 29.8213 18.2453 29.944 18.384 30.04C18.5227 30.1253 18.6827 30.1893 18.864 30.232C19.056 30.2747 19.264 30.296 19.488 30.296C19.904 30.296 20.272 30.232 20.592 30.104C20.9227 29.9653 21.2 29.768 21.424 29.512C21.6587 29.256 21.8347 28.9413 21.952 28.568C22.0693 28.1947 22.128 27.768 22.128 27.288C22.128 26.5627 22.0427 25.9973 21.872 25.592C21.7013 25.1867 21.4453 24.8987 21.104 24.728C20.7733 24.5573 20.3467 24.472 19.824 24.472C19.472 24.472 19.1253 24.5413 18.784 24.68C18.4427 24.808 18.1333 25.0107 17.856 25.288L17.296 24.552C17.6373 24.2107 18.032 23.9547 18.48 23.784C18.928 23.6133 19.4027 23.528 19.904 23.528C20.384 23.528 20.8213 23.5867 21.216 23.704C21.6107 23.8213 21.9467 24.0187 22.224 24.296C22.512 24.5627 22.7307 24.9253 22.88 25.384C23.04 25.8427 23.12 26.4187 23.12 27.112V31H21.872V29.88C21.7333 30.1467 21.5627 30.3653 21.36 30.536C21.168 30.7067 20.96 30.84 20.736 30.936C20.512 31.0213 20.2827 31.08 20.048 31.112C19.8133 31.1547 19.5893 31.176 19.376 31.176ZM25.152 31V23.688H26.272V24.984C26.464 24.6853 26.688 24.4293 26.944 24.216C27.2 23.992 27.4827 23.8213 27.792 23.704C28.1013 23.576 28.4213 23.512 28.752 23.512C29.1573 23.512 29.52 23.6133 29.84 23.816C30.16 24.0187 30.416 24.344 30.608 24.792C30.8 25.24 30.896 25.832 30.896 26.568V31H29.776V26.6C29.776 26.088 29.7173 25.6827 29.6 25.384C29.4827 25.0747 29.3227 24.856 29.12 24.728C28.9173 24.5893 28.688 24.52 28.432 24.52C28.1867 24.52 27.936 24.5733 27.68 24.68C27.4347 24.7867 27.2053 24.9413 26.992 25.144C26.7787 25.336 26.6027 25.5707 26.464 25.848C26.336 26.1253 26.272 26.44 26.272 26.792V31H25.152ZM36.016 31.16C35.6107 31.16 35.2213 31.1173 34.848 31.032C34.4853 30.9467 34.1387 30.8187 33.808 30.648C33.488 30.4773 33.1893 30.264 32.912 30.008L33.552 28.92L33.648 28.776L33.744 28.84C33.7653 28.9253 33.7867 29.016 33.808 29.112C33.84 29.1973 33.9147 29.304 34.032 29.432C34.256 29.656 34.5227 29.8427 34.832 29.992C35.152 30.1307 35.5573 30.2 36.048 30.2C36.4427 30.2 36.7733 30.152 37.04 30.056C37.3173 29.96 37.5307 29.8267 37.68 29.656C37.8293 29.4747 37.904 29.2667 37.904 29.032C37.904 28.872 37.872 28.7333 37.808 28.616C37.744 28.488 37.6373 28.3707 37.488 28.264C37.3493 28.1573 37.1627 28.0507 36.928 27.944C36.6933 27.8373 36.4053 27.7307 36.064 27.624C35.5093 27.464 35.024 27.2773 34.608 27.064C34.192 26.8507 33.872 26.6053 33.648 26.328C33.424 26.04 33.312 25.7147 33.312 25.352C33.312 24.9787 33.4133 24.6587 33.616 24.392C33.8187 24.1147 34.1173 23.9013 34.512 23.752C34.9173 23.592 35.4133 23.512 36 23.512C36.3413 23.512 36.6507 23.5387 36.928 23.592C37.2053 23.6347 37.4613 23.704 37.696 23.8C37.9307 23.896 38.144 24.0187 38.336 24.168C38.5387 24.3067 38.7307 24.472 38.912 24.664L38.256 25.464L38.144 25.592L38.064 25.512C38.0533 25.4267 38.0267 25.3467 37.984 25.272C37.952 25.1867 37.8773 25.0853 37.76 24.968C37.5147 24.776 37.2373 24.632 36.928 24.536C36.6187 24.4293 36.32 24.376 36.032 24.376C35.6053 24.376 35.2373 24.4507 34.928 24.6C34.6187 24.7493 34.464 24.9787 34.464 25.288C34.464 25.448 34.5173 25.608 34.624 25.768C34.7413 25.9173 34.9493 26.072 35.248 26.232C35.5467 26.3813 35.9733 26.536 36.528 26.696C37.136 26.888 37.6213 27.0853 37.984 27.288C38.3573 27.48 38.624 27.704 38.784 27.96C38.9547 28.216 39.04 28.52 39.04 28.872C39.04 29.2773 38.928 29.656 38.704 30.008C38.4907 30.36 38.16 30.6427 37.712 30.856C37.264 31.0587 36.6987 31.16 36.016 31.16ZM41.728 31.016L40.256 23.688H41.264L42.448 29.56L43.696 24.376H44.4L45.952 29.544C46.0907 28.5947 46.2027 27.816 46.288 27.208C46.384 26.6 46.4533 26.104 46.496 25.72C46.5493 25.3253 46.5813 24.9947 46.592 24.728C46.6133 24.4613 46.624 24.1947 46.624 23.928V23.688H47.696C47.5893 24.5093 47.472 25.3307 47.344 26.152C47.2267 26.9627 47.0933 27.7733 46.944 28.584C46.8053 29.3947 46.6507 30.2053 46.48 31.016H45.392L44.048 26.28L42.768 31.016H41.728ZM52.352 31.16C51.8187 31.16 51.3333 31.08 50.896 30.92C50.4587 30.7493 50.08 30.504 49.76 30.184C49.4507 29.864 49.2107 29.4693 49.04 29C48.8693 28.52 48.784 27.976 48.784 27.368C48.784 26.7493 48.8693 26.2 49.04 25.72C49.2213 25.24 49.4613 24.84 49.76 24.52C50.0693 24.1893 50.4267 23.9387 50.832 23.768C51.248 23.5973 51.6853 23.512 52.144 23.512C52.56 23.512 52.9493 23.5813 53.312 23.72C53.6747 23.8587 53.9893 24.072 54.256 24.36C54.5227 24.6373 54.7307 24.9947 54.88 25.432C55.04 25.8693 55.12 26.3867 55.12 26.984C55.12 27.0693 55.1147 27.16 55.104 27.256C55.104 27.3413 55.0987 27.4267 55.088 27.512H49.888C49.9093 27.9813 49.9893 28.392 50.128 28.744C50.2667 29.0853 50.448 29.368 50.672 29.592C50.896 29.8053 51.152 29.9653 51.44 30.072C51.7387 30.1787 52.0533 30.232 52.384 30.232C52.64 30.232 52.88 30.2053 53.104 30.152C53.328 30.088 53.536 29.9973 53.728 29.88C53.9307 29.752 54.112 29.5973 54.272 29.416L54.912 30.04C54.7093 30.2853 54.4747 30.4933 54.208 30.664C53.952 30.8347 53.6693 30.9573 53.36 31.032C53.0507 31.1173 52.7147 31.16 52.352 31.16ZM49.936 26.616H53.952C53.952 26.2747 53.904 25.9707 53.808 25.704C53.7227 25.4267 53.5947 25.192 53.424 25C53.264 24.7973 53.0667 24.648 52.832 24.552C52.608 24.4453 52.352 24.392 52.064 24.392C51.808 24.392 51.5627 24.4347 51.328 24.52C51.104 24.6053 50.896 24.744 50.704 24.936C50.512 25.1173 50.3467 25.3467 50.208 25.624C50.08 25.9013 49.9893 26.232 49.936 26.616ZM57.904 23.688H59.104L59.056 25.816L58.912 25.576C58.976 25.2453 59.088 24.952 59.248 24.696C59.408 24.44 59.6 24.2267 59.824 24.056C60.048 23.8747 60.2933 23.7413 60.56 23.656C60.8267 23.56 61.104 23.512 61.392 23.512C61.776 23.512 62.128 23.5813 62.448 23.72C62.7787 23.848 63.072 24.0453 63.328 24.312L62.816 25.208L62.752 25.352L62.64 25.288C62.6187 25.2027 62.5867 25.1227 62.544 25.048C62.5013 24.9733 62.4107 24.8827 62.272 24.776C62.1013 24.6693 61.9413 24.6 61.792 24.568C61.6533 24.5253 61.4933 24.504 61.312 24.504C61.0453 24.504 60.7787 24.5573 60.512 24.664C60.2453 24.76 60 24.9147 59.776 25.128C59.5627 25.3413 59.392 25.6133 59.264 25.944C59.136 26.2747 59.072 26.6693 59.072 27.128V31.016H57.904V23.688ZM81.248 31V21.016H86.992V21.992H82.368V25.128H86.096V26.104H82.368V31H81.248ZM89.6 31V30.072H91.472V24.616H89.696V23.688H92.624V30.072H94.336V31H89.6ZM91.984 22.152C91.76 22.152 91.568 22.072 91.408 21.912C91.248 21.752 91.168 21.56 91.168 21.336C91.168 21.1013 91.2427 20.904 91.392 20.744C91.552 20.584 91.7493 20.504 91.984 20.504C92.208 20.504 92.4 20.5893 92.56 20.76C92.7307 20.92 92.816 21.112 92.816 21.336C92.816 21.56 92.7307 21.752 92.56 21.912C92.4 22.072 92.208 22.152 91.984 22.152ZM100.352 31.16C99.8187 31.16 99.3333 31.08 98.896 30.92C98.4587 30.7493 98.08 30.504 97.76 30.184C97.4507 29.864 97.2107 29.4693 97.04 29C96.8693 28.52 96.784 27.976 96.784 27.368C96.784 26.7493 96.8693 26.2 97.04 25.72C97.2213 25.24 97.4613 24.84 97.76 24.52C98.0693 24.1893 98.4267 23.9387 98.832 23.768C99.248 23.5973 99.6853 23.512 100.144 23.512C100.56 23.512 100.949 23.5813 101.312 23.72C101.675 23.8587 101.989 24.072 102.256 24.36C102.523 24.6373 102.731 24.9947 102.88 25.432C103.04 25.8693 103.12 26.3867 103.12 26.984C103.12 27.0693 103.115 27.16 103.104 27.256C103.104 27.3413 103.099 27.4267 103.088 27.512H97.888C97.9093 27.9813 97.9893 28.392 98.128 28.744C98.2667 29.0853 98.448 29.368 98.672 29.592C98.896 29.8053 99.152 29.9653 99.44 30.072C99.7387 30.1787 100.053 30.232 100.384 30.232C100.64 30.232 100.88 30.2053 101.104 30.152C101.328 30.088 101.536 29.9973 101.728 29.88C101.931 29.752 102.112 29.5973 102.272 29.416L102.912 30.04C102.709 30.2853 102.475 30.4933 102.208 30.664C101.952 30.8347 101.669 30.9573 101.36 31.032C101.051 31.1173 100.715 31.16 100.352 31.16ZM97.936 26.616H101.952C101.952 26.2747 101.904 25.9707 101.808 25.704C101.723 25.4267 101.595 25.192 101.424 25C101.264 24.7973 101.067 24.648 100.832 24.552C100.608 24.4453 100.352 24.392 100.064 24.392C99.808 24.392 99.5627 24.4347 99.328 24.52C99.104 24.6053 98.896 24.744 98.704 24.936C98.512 25.1173 98.3467 25.3467 98.208 25.624C98.08 25.9013 97.9893 26.232 97.936 26.616ZM105.264 31V30.072H107.424V21.288H105.36V20.36H108.592V30.072H110.736V31H105.264ZM115.744 31.16C115.371 31.16 115.003 31.08 114.64 30.92C114.288 30.76 113.963 30.52 113.664 30.2C113.376 29.88 113.147 29.4747 112.976 28.984C112.805 28.4933 112.72 27.9227 112.72 27.272C112.72 26.6 112.811 26.0293 112.992 25.56C113.173 25.08 113.413 24.6907 113.712 24.392C114.011 24.0827 114.341 23.8587 114.704 23.72C115.067 23.5707 115.435 23.496 115.808 23.496C116.149 23.496 116.453 23.5493 116.72 23.656C116.997 23.7627 117.237 23.912 117.44 24.104C117.653 24.2853 117.819 24.504 117.936 24.76V20.36H118.992H119.152V20.472C119.088 20.536 119.045 20.6053 119.024 20.68C119.013 20.7547 119.008 20.8827 119.008 21.064L119.024 29.864C119.024 30.056 119.029 30.248 119.04 30.44C119.061 30.6213 119.109 30.808 119.184 31H118.048C117.995 30.872 117.957 30.744 117.936 30.616C117.915 30.488 117.899 30.3653 117.888 30.248C117.888 30.12 117.888 29.992 117.888 29.864C117.739 30.12 117.557 30.3493 117.344 30.552C117.131 30.744 116.891 30.8933 116.624 31C116.357 31.1067 116.064 31.16 115.744 31.16ZM115.92 30.152C116.272 30.152 116.571 30.0827 116.816 29.944C117.061 29.7947 117.259 29.592 117.408 29.336C117.557 29.0693 117.664 28.7653 117.728 28.424C117.803 28.072 117.84 27.6987 117.84 27.304C117.84 26.76 117.771 26.2747 117.632 25.848C117.493 25.4107 117.275 25.0693 116.976 24.824C116.677 24.568 116.293 24.44 115.824 24.44C115.504 24.44 115.216 24.504 114.96 24.632C114.715 24.7493 114.507 24.9253 114.336 25.16C114.176 25.3947 114.053 25.6773 113.968 26.008C113.883 26.328 113.84 26.6907 113.84 27.096C113.84 27.704 113.92 28.2373 114.08 28.696C114.24 29.1547 114.475 29.512 114.784 29.768C115.093 30.024 115.472 30.152 115.92 30.152ZM19.376 48.176C18.544 48.176 17.904 47.9893 17.456 47.616C17.008 47.232 16.784 46.7467 16.784 46.16C16.784 45.7653 16.88 45.4133 17.072 45.104C17.264 44.784 17.5253 44.5173 17.856 44.304C18.1973 44.08 18.592 43.9093 19.04 43.792C19.488 43.6747 19.9627 43.616 20.464 43.616C20.6453 43.616 20.8267 43.6213 21.008 43.632C21.2 43.632 21.3973 43.6427 21.6 43.664C21.8133 43.6747 22.032 43.696 22.256 43.728L22.288 44.608C22.096 44.576 21.8987 44.5547 21.696 44.544C21.504 44.5227 21.312 44.5067 21.12 44.496C20.928 44.4853 20.7413 44.48 20.56 44.48C20.176 44.48 19.824 44.512 19.504 44.576C19.184 44.64 18.9067 44.736 18.672 44.864C18.4373 44.992 18.256 45.1573 18.128 45.36C18 45.5627 17.936 45.808 17.936 46.096C17.936 46.32 17.9733 46.512 18.048 46.672C18.1333 46.8213 18.2453 46.944 18.384 47.04C18.5227 47.1253 18.6827 47.1893 18.864 47.232C19.056 47.2747 19.264 47.296 19.488 47.296C19.904 47.296 20.272 47.232 20.592 47.104C20.9227 46.9653 21.2 46.768 21.424 46.512C21.6587 46.256 21.8347 45.9413 21.952 45.568C22.0693 45.1947 22.128 44.768 22.128 44.288C22.128 43.5627 22.0427 42.9973 21.872 42.592C21.7013 42.1867 21.4453 41.8987 21.104 41.728C20.7733 41.5573 20.3467 41.472 19.824 41.472C19.472 41.472 19.1253 41.5413 18.784 41.68C18.4427 41.808 18.1333 42.0107 17.856 42.288L17.296 41.552C17.6373 41.2107 18.032 40.9547 18.48 40.784C18.928 40.6133 19.4027 40.528 19.904 40.528C20.384 40.528 20.8213 40.5867 21.216 40.704C21.6107 40.8213 21.9467 41.0187 22.224 41.296C22.512 41.5627 22.7307 41.9253 22.88 42.384C23.04 42.8427 23.12 43.4187 23.12 44.112V48H21.872V46.88C21.7333 47.1467 21.5627 47.3653 21.36 47.536C21.168 47.7067 20.96 47.84 20.736 47.936C20.512 48.0213 20.2827 48.08 20.048 48.112C19.8133 48.1547 19.5893 48.176 19.376 48.176ZM25.152 48V40.688H26.272V41.984C26.464 41.6853 26.688 41.4293 26.944 41.216C27.2 40.992 27.4827 40.8213 27.792 40.704C28.1013 40.576 28.4213 40.512 28.752 40.512C29.1573 40.512 29.52 40.6133 29.84 40.816C30.16 41.0187 30.416 41.344 30.608 41.792C30.8 42.24 30.896 42.832 30.896 43.568V48H29.776V43.6C29.776 43.088 29.7173 42.6827 29.6 42.384C29.4827 42.0747 29.3227 41.856 29.12 41.728C28.9173 41.5893 28.688 41.52 28.432 41.52C28.1867 41.52 27.936 41.5733 27.68 41.68C27.4347 41.7867 27.2053 41.9413 26.992 42.144C26.7787 42.336 26.6027 42.5707 26.464 42.848C26.336 43.1253 26.272 43.44 26.272 43.792V48H25.152ZM36.016 48.16C35.6107 48.16 35.2213 48.1173 34.848 48.032C34.4853 47.9467 34.1387 47.8187 33.808 47.648C33.488 47.4773 33.1893 47.264 32.912 47.008L33.552 45.92L33.648 45.776L33.744 45.84C33.7653 45.9253 33.7867 46.016 33.808 46.112C33.84 46.1973 33.9147 46.304 34.032 46.432C34.256 46.656 34.5227 46.8427 34.832 46.992C35.152 47.1307 35.5573 47.2 36.048 47.2C36.4427 47.2 36.7733 47.152 37.04 47.056C37.3173 46.96 37.5307 46.8267 37.68 46.656C37.8293 46.4747 37.904 46.2667 37.904 46.032C37.904 45.872 37.872 45.7333 37.808 45.616C37.744 45.488 37.6373 45.3707 37.488 45.264C37.3493 45.1573 37.1627 45.0507 36.928 44.944C36.6933 44.8373 36.4053 44.7307 36.064 44.624C35.5093 44.464 35.024 44.2773 34.608 44.064C34.192 43.8507 33.872 43.6053 33.648 43.328C33.424 43.04 33.312 42.7147 33.312 42.352C33.312 41.9787 33.4133 41.6587 33.616 41.392C33.8187 41.1147 34.1173 40.9013 34.512 40.752C34.9173 40.592 35.4133 40.512 36 40.512C36.3413 40.512 36.6507 40.5387 36.928 40.592C37.2053 40.6347 37.4613 40.704 37.696 40.8C37.9307 40.896 38.144 41.0187 38.336 41.168C38.5387 41.3067 38.7307 41.472 38.912 41.664L38.256 42.464L38.144 42.592L38.064 42.512C38.0533 42.4267 38.0267 42.3467 37.984 42.272C37.952 42.1867 37.8773 42.0853 37.76 41.968C37.5147 41.776 37.2373 41.632 36.928 41.536C36.6187 41.4293 36.32 41.376 36.032 41.376C35.6053 41.376 35.2373 41.4507 34.928 41.6C34.6187 41.7493 34.464 41.9787 34.464 42.288C34.464 42.448 34.5173 42.608 34.624 42.768C34.7413 42.9173 34.9493 43.072 35.248 43.232C35.5467 43.3813 35.9733 43.536 36.528 43.696C37.136 43.888 37.6213 44.0853 37.984 44.288C38.3573 44.48 38.624 44.704 38.784 44.96C38.9547 45.216 39.04 45.52 39.04 45.872C39.04 46.2773 38.928 46.656 38.704 47.008C38.4907 47.36 38.16 47.6427 37.712 47.856C37.264 48.0587 36.6987 48.16 36.016 48.16ZM41.728 48.016L40.256 40.688H41.264L42.448 46.56L43.696 41.376H44.4L45.952 46.544C46.0907 45.5947 46.2027 44.816 46.288 44.208C46.384 43.6 46.4533 43.104 46.496 42.72C46.5493 42.3253 46.5813 41.9947 46.592 41.728C46.6133 41.4613 46.624 41.1947 46.624 40.928V40.688H47.696C47.5893 41.5093 47.472 42.3307 47.344 43.152C47.2267 43.9627 47.0933 44.7733 46.944 45.584C46.8053 46.3947 46.6507 47.2053 46.48 48.016H45.392L44.048 43.28L42.768 48.016H41.728ZM52.352 48.16C51.8187 48.16 51.3333 48.08 50.896 47.92C50.4587 47.7493 50.08 47.504 49.76 47.184C49.4507 46.864 49.2107 46.4693 49.04 46C48.8693 45.52 48.784 44.976 48.784 44.368C48.784 43.7493 48.8693 43.2 49.04 42.72C49.2213 42.24 49.4613 41.84 49.76 41.52C50.0693 41.1893 50.4267 40.9387 50.832 40.768C51.248 40.5973 51.6853 40.512 52.144 40.512C52.56 40.512 52.9493 40.5813 53.312 40.72C53.6747 40.8587 53.9893 41.072 54.256 41.36C54.5227 41.6373 54.7307 41.9947 54.88 42.432C55.04 42.8693 55.12 43.3867 55.12 43.984C55.12 44.0693 55.1147 44.16 55.104 44.256C55.104 44.3413 55.0987 44.4267 55.088 44.512H49.888C49.9093 44.9813 49.9893 45.392 50.128 45.744C50.2667 46.0853 50.448 46.368 50.672 46.592C50.896 46.8053 51.152 46.9653 51.44 47.072C51.7387 47.1787 52.0533 47.232 52.384 47.232C52.64 47.232 52.88 47.2053 53.104 47.152C53.328 47.088 53.536 46.9973 53.728 46.88C53.9307 46.752 54.112 46.5973 54.272 46.416L54.912 47.04C54.7093 47.2853 54.4747 47.4933 54.208 47.664C53.952 47.8347 53.6693 47.9573 53.36 48.032C53.0507 48.1173 52.7147 48.16 52.352 48.16ZM49.936 43.616H53.952C53.952 43.2747 53.904 42.9707 53.808 42.704C53.7227 42.4267 53.5947 42.192 53.424 42C53.264 41.7973 53.0667 41.648 52.832 41.552C52.608 41.4453 52.352 41.392 52.064 41.392C51.808 41.392 51.5627 41.4347 51.328 41.52C51.104 41.6053 50.896 41.744 50.704 41.936C50.512 42.1173 50.3467 42.3467 50.208 42.624C50.08 42.9013 49.9893 43.232 49.936 43.616ZM57.904 40.688H59.104L59.056 42.816L58.912 42.576C58.976 42.2453 59.088 41.952 59.248 41.696C59.408 41.44 59.6 41.2267 59.824 41.056C60.048 40.8747 60.2933 40.7413 60.56 40.656C60.8267 40.56 61.104 40.512 61.392 40.512C61.776 40.512 62.128 40.5813 62.448 40.72C62.7787 40.848 63.072 41.0453 63.328 41.312L62.816 42.208L62.752 42.352L62.64 42.288C62.6187 42.2027 62.5867 42.1227 62.544 42.048C62.5013 41.9733 62.4107 41.8827 62.272 41.776C62.1013 41.6693 61.9413 41.6 61.792 41.568C61.6533 41.5253 61.4933 41.504 61.312 41.504C61.0453 41.504 60.7787 41.5573 60.512 41.664C60.2453 41.76 60 41.9147 59.776 42.128C59.5627 42.3413 59.392 42.6133 59.264 42.944C59.136 43.2747 59.072 43.6693 59.072 44.128V48.016H57.904V40.688ZM64.8 38.032H65.952H66.112V38.144C66.048 38.208 66.0053 38.2773 65.984 38.352C65.9733 38.4267 65.968 38.5547 65.968 38.736V42.288H69.872V38.032H71.024H71.184V38.144C71.12 38.208 71.0773 38.2773 71.056 38.352C71.0453 38.4267 71.04 38.5547 71.04 38.736V48H69.856V43.248H65.968V48H64.8V38.032ZM75.376 48.176C74.544 48.176 73.904 47.9893 73.456 47.616C73.008 47.232 72.784 46.7467 72.784 46.16C72.784 45.7653 72.88 45.4133 73.072 45.104C73.264 44.784 73.5253 44.5173 73.856 44.304C74.1973 44.08 74.592 43.9093 75.04 43.792C75.488 43.6747 75.9627 43.616 76.464 43.616C76.6453 43.616 76.8267 43.6213 77.008 43.632C77.2 43.632 77.3973 43.6427 77.6 43.664C77.8133 43.6747 78.032 43.696 78.256 43.728L78.288 44.608C78.096 44.576 77.8987 44.5547 77.696 44.544C77.504 44.5227 77.312 44.5067 77.12 44.496C76.928 44.4853 76.7413 44.48 76.56 44.48C76.176 44.48 75.824 44.512 75.504 44.576C75.184 44.64 74.9067 44.736 74.672 44.864C74.4373 44.992 74.256 45.1573 74.128 45.36C74 45.5627 73.936 45.808 73.936 46.096C73.936 46.32 73.9733 46.512 74.048 46.672C74.1333 46.8213 74.2453 46.944 74.384 47.04C74.5227 47.1253 74.6827 47.1893 74.864 47.232C75.056 47.2747 75.264 47.296 75.488 47.296C75.904 47.296 76.272 47.232 76.592 47.104C76.9227 46.9653 77.2 46.768 77.424 46.512C77.6587 46.256 77.8347 45.9413 77.952 45.568C78.0693 45.1947 78.128 44.768 78.128 44.288C78.128 43.5627 78.0427 42.9973 77.872 42.592C77.7013 42.1867 77.4453 41.8987 77.104 41.728C76.7733 41.5573 76.3467 41.472 75.824 41.472C75.472 41.472 75.1253 41.5413 74.784 41.68C74.4427 41.808 74.1333 42.0107 73.856 42.288L73.296 41.552C73.6373 41.2107 74.032 40.9547 74.48 40.784C74.928 40.6133 75.4027 40.528 75.904 40.528C76.384 40.528 76.8213 40.5867 77.216 40.704C77.6107 40.8213 77.9467 41.0187 78.224 41.296C78.512 41.5627 78.7307 41.9253 78.88 42.384C79.04 42.8427 79.12 43.4187 79.12 44.112V48H77.872V46.88C77.7333 47.1467 77.5627 47.3653 77.36 47.536C77.168 47.7067 76.96 47.84 76.736 47.936C76.512 48.0213 76.2827 48.08 76.048 48.112C75.8133 48.1547 75.5893 48.176 75.376 48.176ZM84.016 48.16C83.6107 48.16 83.2213 48.1173 82.848 48.032C82.4853 47.9467 82.1387 47.8187 81.808 47.648C81.488 47.4773 81.1893 47.264 80.912 47.008L81.552 45.92L81.648 45.776L81.744 45.84C81.7653 45.9253 81.7867 46.016 81.808 46.112C81.84 46.1973 81.9147 46.304 82.032 46.432C82.256 46.656 82.5227 46.8427 82.832 46.992C83.152 47.1307 83.5573 47.2 84.048 47.2C84.4427 47.2 84.7733 47.152 85.04 47.056C85.3173 46.96 85.5307 46.8267 85.68 46.656C85.8293 46.4747 85.904 46.2667 85.904 46.032C85.904 45.872 85.872 45.7333 85.808 45.616C85.744 45.488 85.6373 45.3707 85.488 45.264C85.3493 45.1573 85.1627 45.0507 84.928 44.944C84.6933 44.8373 84.4053 44.7307 84.064 44.624C83.5093 44.464 83.024 44.2773 82.608 44.064C82.192 43.8507 81.872 43.6053 81.648 43.328C81.424 43.04 81.312 42.7147 81.312 42.352C81.312 41.9787 81.4133 41.6587 81.616 41.392C81.8187 41.1147 82.1173 40.9013 82.512 40.752C82.9173 40.592 83.4133 40.512 84 40.512C84.3413 40.512 84.6507 40.5387 84.928 40.592C85.2053 40.6347 85.4613 40.704 85.696 40.8C85.9307 40.896 86.144 41.0187 86.336 41.168C86.5387 41.3067 86.7307 41.472 86.912 41.664L86.256 42.464L86.144 42.592L86.064 42.512C86.0533 42.4267 86.0267 42.3467 85.984 42.272C85.952 42.1867 85.8773 42.0853 85.76 41.968C85.5147 41.776 85.2373 41.632 84.928 41.536C84.6187 41.4293 84.32 41.376 84.032 41.376C83.6053 41.376 83.2373 41.4507 82.928 41.6C82.6187 41.7493 82.464 41.9787 82.464 42.288C82.464 42.448 82.5173 42.608 82.624 42.768C82.7413 42.9173 82.9493 43.072 83.248 43.232C83.5467 43.3813 83.9733 43.536 84.528 43.696C85.136 43.888 85.6213 44.0853 85.984 44.288C86.3573 44.48 86.624 44.704 86.784 44.96C86.9547 45.216 87.04 45.52 87.04 45.872C87.04 46.2773 86.928 46.656 86.704 47.008C86.4907 47.36 86.16 47.6427 85.712 47.856C85.264 48.0587 84.6987 48.16 84.016 48.16ZM89.168 37.36H90.272H90.432V37.472C90.368 37.536 90.3253 37.6053 90.304 37.68C90.2933 37.7547 90.288 37.8827 90.288 38.064V41.984C90.48 41.6853 90.704 41.4293 90.96 41.216C91.2267 40.992 91.504 40.8213 91.792 40.704C92.0907 40.576 92.3893 40.512 92.688 40.512C93.1253 40.512 93.5093 40.6133 93.84 40.816C94.1813 41.0187 94.4427 41.344 94.624 41.792C94.816 42.24 94.912 42.832 94.912 43.568V48H93.792V43.6C93.792 43.088 93.7333 42.6827 93.616 42.384C93.4987 42.0747 93.3387 41.856 93.136 41.728C92.9333 41.5893 92.704 41.52 92.448 41.52C92.256 41.52 92.0587 41.552 91.856 41.616C91.6533 41.68 91.456 41.776 91.264 41.904C91.0827 42.032 90.9173 42.192 90.768 42.384C90.6187 42.5653 90.5013 42.7733 90.416 43.008C90.3307 43.2427 90.288 43.504 90.288 43.792V48H89.168V37.36ZM153.248 48V38.016H158.992V38.992H154.368V42.128H158.096V43.104H154.368V48H153.248ZM161.6 48V47.072H163.472V41.616H161.696V40.688H164.624V47.072H166.336V48H161.6ZM163.984 39.152C163.76 39.152 163.568 39.072 163.408 38.912C163.248 38.752 163.168 38.56 163.168 38.336C163.168 38.1013 163.243 37.904 163.392 37.744C163.552 37.584 163.749 37.504 163.984 37.504C164.208 37.504 164.4 37.5893 164.56 37.76C164.731 37.92 164.816 38.112 164.816 38.336C164.816 38.56 164.731 38.752 164.56 38.912C164.4 39.072 164.208 39.152 163.984 39.152ZM172.352 48.16C171.819 48.16 171.333 48.08 170.896 47.92C170.459 47.7493 170.08 47.504 169.76 47.184C169.451 46.864 169.211 46.4693 169.04 46C168.869 45.52 168.784 44.976 168.784 44.368C168.784 43.7493 168.869 43.2 169.04 42.72C169.221 42.24 169.461 41.84 169.76 41.52C170.069 41.1893 170.427 40.9387 170.832 40.768C171.248 40.5973 171.685 40.512 172.144 40.512C172.56 40.512 172.949 40.5813 173.312 40.72C173.675 40.8587 173.989 41.072 174.256 41.36C174.523 41.6373 174.731 41.9947 174.88 42.432C175.04 42.8693 175.12 43.3867 175.12 43.984C175.12 44.0693 175.115 44.16 175.104 44.256C175.104 44.3413 175.099 44.4267 175.088 44.512H169.888C169.909 44.9813 169.989 45.392 170.128 45.744C170.267 46.0853 170.448 46.368 170.672 46.592C170.896 46.8053 171.152 46.9653 171.44 47.072C171.739 47.1787 172.053 47.232 172.384 47.232C172.64 47.232 172.88 47.2053 173.104 47.152C173.328 47.088 173.536 46.9973 173.728 46.88C173.931 46.752 174.112 46.5973 174.272 46.416L174.912 47.04C174.709 47.2853 174.475 47.4933 174.208 47.664C173.952 47.8347 173.669 47.9573 173.36 48.032C173.051 48.1173 172.715 48.16 172.352 48.16ZM169.936 43.616H173.952C173.952 43.2747 173.904 42.9707 173.808 42.704C173.723 42.4267 173.595 42.192 173.424 42C173.264 41.7973 173.067 41.648 172.832 41.552C172.608 41.4453 172.352 41.392 172.064 41.392C171.808 41.392 171.563 41.4347 171.328 41.52C171.104 41.6053 170.896 41.744 170.704 41.936C170.512 42.1173 170.347 42.3467 170.208 42.624C170.08 42.9013 169.989 43.232 169.936 43.616ZM177.264 48V47.072H179.424V38.288H177.36V37.36H180.592V47.072H182.736V48H177.264ZM187.744 48.16C187.371 48.16 187.003 48.08 186.64 47.92C186.288 47.76 185.963 47.52 185.664 47.2C185.376 46.88 185.147 46.4747 184.976 45.984C184.805 45.4933 184.72 44.9227 184.72 44.272C184.72 43.6 184.811 43.0293 184.992 42.56C185.173 42.08 185.413 41.6907 185.712 41.392C186.011 41.0827 186.341 40.8587 186.704 40.72C187.067 40.5707 187.435 40.496 187.808 40.496C188.149 40.496 188.453 40.5493 188.72 40.656C188.997 40.7627 189.237 40.912 189.44 41.104C189.653 41.2853 189.819 41.504 189.936 41.76V37.36H190.992H191.152V37.472C191.088 37.536 191.045 37.6053 191.024 37.68C191.013 37.7547 191.008 37.8827 191.008 38.064L191.024 46.864C191.024 47.056 191.029 47.248 191.04 47.44C191.061 47.6213 191.109 47.808 191.184 48H190.048C189.995 47.872 189.957 47.744 189.936 47.616C189.915 47.488 189.899 47.3653 189.888 47.248C189.888 47.12 189.888 46.992 189.888 46.864C189.739 47.12 189.557 47.3493 189.344 47.552C189.131 47.744 188.891 47.8933 188.624 48C188.357 48.1067 188.064 48.16 187.744 48.16ZM187.92 47.152C188.272 47.152 188.571 47.0827 188.816 46.944C189.061 46.7947 189.259 46.592 189.408 46.336C189.557 46.0693 189.664 45.7653 189.728 45.424C189.803 45.072 189.84 44.6987 189.84 44.304C189.84 43.76 189.771 43.2747 189.632 42.848C189.493 42.4107 189.275 42.0693 188.976 41.824C188.677 41.568 188.293 41.44 187.824 41.44C187.504 41.44 187.216 41.504 186.96 41.632C186.715 41.7493 186.507 41.9253 186.336 42.16C186.176 42.3947 186.053 42.6773 185.968 43.008C185.883 43.328 185.84 43.6907 185.84 44.096C185.84 44.704 185.92 45.2373 186.08 45.696C186.24 46.1547 186.475 46.512 186.784 46.768C187.093 47.024 187.472 47.152 187.92 47.152ZM104.96 84.672V74.688H106.128V76.128C106.245 75.7547 106.411 75.4507 106.624 75.216C106.848 74.9813 107.104 74.8107 107.392 74.704C107.691 74.5867 108.011 74.528 108.352 74.528C108.757 74.528 109.141 74.608 109.504 74.768C109.877 74.9173 110.203 75.1467 110.48 75.456C110.768 75.7653 110.992 76.1547 111.152 76.624C111.323 77.0933 111.408 77.648 111.408 78.288C111.408 78.928 111.317 79.4933 111.136 79.984C110.965 80.4747 110.731 80.8853 110.432 81.216C110.144 81.536 109.813 81.7813 109.44 81.952C109.077 82.112 108.704 82.192 108.32 82.192C108.032 82.192 107.749 82.144 107.472 82.048C107.205 81.9627 106.96 81.8347 106.736 81.664C106.512 81.4827 106.315 81.2747 106.144 81.04V84.672H104.96ZM108.128 81.168C108.384 81.168 108.635 81.1253 108.88 81.04C109.125 80.944 109.349 80.7893 109.552 80.576C109.755 80.3627 109.915 80.0747 110.032 79.712C110.149 79.3387 110.208 78.88 110.208 78.336C110.208 77.7493 110.133 77.2533 109.984 76.848C109.835 76.432 109.616 76.112 109.328 75.888C109.051 75.664 108.709 75.5413 108.304 75.52C108.005 75.4987 107.723 75.5413 107.456 75.648C107.2 75.7547 106.971 75.9307 106.768 76.176C106.565 76.4213 106.405 76.7467 106.288 77.152C106.181 77.5467 106.128 78.0267 106.128 78.592C106.139 78.9333 106.176 79.2427 106.24 79.52C106.304 79.7973 106.395 80.0427 106.512 80.256C106.629 80.4587 106.768 80.6293 106.928 80.768C107.088 80.896 107.269 80.9973 107.472 81.072C107.675 81.136 107.893 81.168 108.128 81.168ZM116.352 82.16C115.819 82.16 115.333 82.08 114.896 81.92C114.459 81.7493 114.08 81.504 113.76 81.184C113.451 80.864 113.211 80.4693 113.04 80C112.869 79.52 112.784 78.976 112.784 78.368C112.784 77.7493 112.869 77.2 113.04 76.72C113.221 76.24 113.461 75.84 113.76 75.52C114.069 75.1893 114.427 74.9387 114.832 74.768C115.248 74.5973 115.685 74.512 116.144 74.512C116.56 74.512 116.949 74.5813 117.312 74.72C117.675 74.8587 117.989 75.072 118.256 75.36C118.523 75.6373 118.731 75.9947 118.88 76.432C119.04 76.8693 119.12 77.3867 119.12 77.984C119.12 78.0693 119.115 78.16 119.104 78.256C119.104 78.3413 119.099 78.4267 119.088 78.512H113.888C113.909 78.9813 113.989 79.392 114.128 79.744C114.267 80.0853 114.448 80.368 114.672 80.592C114.896 80.8053 115.152 80.9653 115.44 81.072C115.739 81.1787 116.053 81.232 116.384 81.232C116.64 81.232 116.88 81.2053 117.104 81.152C117.328 81.088 117.536 80.9973 117.728 80.88C117.931 80.752 118.112 80.5973 118.272 80.416L118.912 81.04C118.709 81.2853 118.475 81.4933 118.208 81.664C117.952 81.8347 117.669 81.9573 117.36 82.032C117.051 82.1173 116.715 82.16 116.352 82.16ZM113.936 77.616H117.952C117.952 77.2747 117.904 76.9707 117.808 76.704C117.723 76.4267 117.595 76.192 117.424 76C117.264 75.7973 117.067 75.648 116.832 75.552C116.608 75.4453 116.352 75.392 116.064 75.392C115.808 75.392 115.563 75.4347 115.328 75.52C115.104 75.6053 114.896 75.744 114.704 75.936C114.512 76.1173 114.347 76.3467 114.208 76.624C114.08 76.9013 113.989 77.232 113.936 77.616ZM123.744 82.16C123.371 82.16 123.003 82.08 122.64 81.92C122.288 81.76 121.963 81.52 121.664 81.2C121.376 80.88 121.147 80.4747 120.976 79.984C120.805 79.4933 120.72 78.9227 120.72 78.272C120.72 77.6 120.811 77.0293 120.992 76.56C121.173 76.08 121.413 75.6907 121.712 75.392C122.011 75.0827 122.341 74.8587 122.704 74.72C123.067 74.5707 123.435 74.496 123.808 74.496C124.149 74.496 124.453 74.5493 124.72 74.656C124.997 74.7627 125.237 74.912 125.44 75.104C125.653 75.2853 125.819 75.504 125.936 75.76V71.36H126.992H127.152V71.472C127.088 71.536 127.045 71.6053 127.024 71.68C127.013 71.7547 127.008 71.8827 127.008 72.064L127.024 80.864C127.024 81.056 127.029 81.248 127.04 81.44C127.061 81.6213 127.109 81.808 127.184 82H126.048C125.995 81.872 125.957 81.744 125.936 81.616C125.915 81.488 125.899 81.3653 125.888 81.248C125.888 81.12 125.888 80.992 125.888 80.864C125.739 81.12 125.557 81.3493 125.344 81.552C125.131 81.744 124.891 81.8933 124.624 82C124.357 82.1067 124.064 82.16 123.744 82.16ZM123.92 81.152C124.272 81.152 124.571 81.0827 124.816 80.944C125.061 80.7947 125.259 80.592 125.408 80.336C125.557 80.0693 125.664 79.7653 125.728 79.424C125.803 79.072 125.84 78.6987 125.84 78.304C125.84 77.76 125.771 77.2747 125.632 76.848C125.493 76.4107 125.275 76.0693 124.976 75.824C124.677 75.568 124.293 75.44 123.824 75.44C123.504 75.44 123.216 75.504 122.96 75.632C122.715 75.7493 122.507 75.9253 122.336 76.16C122.176 76.3947 122.053 76.6773 121.968 77.008C121.883 77.328 121.84 77.6907 121.84 78.096C121.84 78.704 121.92 79.2373 122.08 79.696C122.24 80.1547 122.475 80.512 122.784 80.768C123.093 81.024 123.472 81.152 123.92 81.152ZM132.352 82.16C131.819 82.16 131.333 82.08 130.896 81.92C130.459 81.7493 130.08 81.504 129.76 81.184C129.451 80.864 129.211 80.4693 129.04 80C128.869 79.52 128.784 78.976 128.784 78.368C128.784 77.7493 128.869 77.2 129.04 76.72C129.221 76.24 129.461 75.84 129.76 75.52C130.069 75.1893 130.427 74.9387 130.832 74.768C131.248 74.5973 131.685 74.512 132.144 74.512C132.56 74.512 132.949 74.5813 133.312 74.72C133.675 74.8587 133.989 75.072 134.256 75.36C134.523 75.6373 134.731 75.9947 134.88 76.432C135.04 76.8693 135.12 77.3867 135.12 77.984C135.12 78.0693 135.115 78.16 135.104 78.256C135.104 78.3413 135.099 78.4267 135.088 78.512H129.888C129.909 78.9813 129.989 79.392 130.128 79.744C130.267 80.0853 130.448 80.368 130.672 80.592C130.896 80.8053 131.152 80.9653 131.44 81.072C131.739 81.1787 132.053 81.232 132.384 81.232C132.64 81.232 132.88 81.2053 133.104 81.152C133.328 81.088 133.536 80.9973 133.728 80.88C133.931 80.752 134.112 80.5973 134.272 80.416L134.912 81.04C134.709 81.2853 134.475 81.4933 134.208 81.664C133.952 81.8347 133.669 81.9573 133.36 82.032C133.051 82.1173 132.715 82.16 132.352 82.16ZM129.936 77.616H133.952C133.952 77.2747 133.904 76.9707 133.808 76.704C133.723 76.4267 133.595 76.192 133.424 76C133.264 75.7973 133.067 75.648 132.832 75.552C132.608 75.4453 132.352 75.392 132.064 75.392C131.808 75.392 131.563 75.4347 131.328 75.52C131.104 75.6053 130.896 75.744 130.704 75.936C130.512 76.1173 130.347 76.3467 130.208 76.624C130.08 76.9013 129.989 77.232 129.936 77.616ZM137.904 74.688H139.104L139.056 76.816L138.912 76.576C138.976 76.2453 139.088 75.952 139.248 75.696C139.408 75.44 139.6 75.2267 139.824 75.056C140.048 74.8747 140.293 74.7413 140.56 74.656C140.827 74.56 141.104 74.512 141.392 74.512C141.776 74.512 142.128 74.5813 142.448 74.72C142.779 74.848 143.072 75.0453 143.328 75.312L142.816 76.208L142.752 76.352L142.64 76.288C142.619 76.2027 142.587 76.1227 142.544 76.048C142.501 75.9733 142.411 75.8827 142.272 75.776C142.101 75.6693 141.941 75.6 141.792 75.568C141.653 75.5253 141.493 75.504 141.312 75.504C141.045 75.504 140.779 75.5573 140.512 75.664C140.245 75.76 140 75.9147 139.776 76.128C139.563 76.3413 139.392 76.6133 139.264 76.944C139.136 77.2747 139.072 77.6693 139.072 78.128V82.016H137.904V74.688ZM148.016 82.16C147.611 82.16 147.221 82.1173 146.848 82.032C146.485 81.9467 146.139 81.8187 145.808 81.648C145.488 81.4773 145.189 81.264 144.912 81.008L145.552 79.92L145.648 79.776L145.744 79.84C145.765 79.9253 145.787 80.016 145.808 80.112C145.84 80.1973 145.915 80.304 146.032 80.432C146.256 80.656 146.523 80.8427 146.832 80.992C147.152 81.1307 147.557 81.2 148.048 81.2C148.443 81.2 148.773 81.152 149.04 81.056C149.317 80.96 149.531 80.8267 149.68 80.656C149.829 80.4747 149.904 80.2667 149.904 80.032C149.904 79.872 149.872 79.7333 149.808 79.616C149.744 79.488 149.637 79.3707 149.488 79.264C149.349 79.1573 149.163 79.0507 148.928 78.944C148.693 78.8373 148.405 78.7307 148.064 78.624C147.509 78.464 147.024 78.2773 146.608 78.064C146.192 77.8507 145.872 77.6053 145.648 77.328C145.424 77.04 145.312 76.7147 145.312 76.352C145.312 75.9787 145.413 75.6587 145.616 75.392C145.819 75.1147 146.117 74.9013 146.512 74.752C146.917 74.592 147.413 74.512 148 74.512C148.341 74.512 148.651 74.5387 148.928 74.592C149.205 74.6347 149.461 74.704 149.696 74.8C149.931 74.896 150.144 75.0187 150.336 75.168C150.539 75.3067 150.731 75.472 150.912 75.664L150.256 76.464L150.144 76.592L150.064 76.512C150.053 76.4267 150.027 76.3467 149.984 76.272C149.952 76.1867 149.877 76.0853 149.76 75.968C149.515 75.776 149.237 75.632 148.928 75.536C148.619 75.4293 148.32 75.376 148.032 75.376C147.605 75.376 147.237 75.4507 146.928 75.6C146.619 75.7493 146.464 75.9787 146.464 76.288C146.464 76.448 146.517 76.608 146.624 76.768C146.741 76.9173 146.949 77.072 147.248 77.232C147.547 77.3813 147.973 77.536 148.528 77.696C149.136 77.888 149.621 78.0853 149.984 78.288C150.357 78.48 150.624 78.704 150.784 78.96C150.955 79.216 151.04 79.52 151.04 79.872C151.04 80.2773 150.928 80.656 150.704 81.008C150.491 81.36 150.16 81.6427 149.712 81.856C149.264 82.0587 148.699 82.16 148.016 82.16ZM156.352 82.16C155.819 82.16 155.333 82.08 154.896 81.92C154.459 81.7493 154.08 81.504 153.76 81.184C153.451 80.864 153.211 80.4693 153.04 80C152.869 79.52 152.784 78.976 152.784 78.368C152.784 77.7493 152.869 77.2 153.04 76.72C153.221 76.24 153.461 75.84 153.76 75.52C154.069 75.1893 154.427 74.9387 154.832 74.768C155.248 74.5973 155.685 74.512 156.144 74.512C156.56 74.512 156.949 74.5813 157.312 74.72C157.675 74.8587 157.989 75.072 158.256 75.36C158.523 75.6373 158.731 75.9947 158.88 76.432C159.04 76.8693 159.12 77.3867 159.12 77.984C159.12 78.0693 159.115 78.16 159.104 78.256C159.104 78.3413 159.099 78.4267 159.088 78.512H153.888C153.909 78.9813 153.989 79.392 154.128 79.744C154.267 80.0853 154.448 80.368 154.672 80.592C154.896 80.8053 155.152 80.9653 155.44 81.072C155.739 81.1787 156.053 81.232 156.384 81.232C156.64 81.232 156.88 81.2053 157.104 81.152C157.328 81.088 157.536 80.9973 157.728 80.88C157.931 80.752 158.112 80.5973 158.272 80.416L158.912 81.04C158.709 81.2853 158.475 81.4933 158.208 81.664C157.952 81.8347 157.669 81.9573 157.36 82.032C157.051 82.1173 156.715 82.16 156.352 82.16ZM153.936 77.616H157.952C157.952 77.2747 157.904 76.9707 157.808 76.704C157.723 76.4267 157.595 76.192 157.424 76C157.264 75.7973 157.067 75.648 156.832 75.552C156.608 75.4453 156.352 75.392 156.064 75.392C155.808 75.392 155.563 75.4347 155.328 75.52C155.104 75.6053 154.896 75.744 154.704 75.936C154.512 76.1173 154.347 76.3467 154.208 76.624C154.08 76.9013 153.989 77.232 153.936 77.616ZM161.152 82V74.688H162.272V75.984C162.464 75.6853 162.688 75.4293 162.944 75.216C163.2 74.992 163.483 74.8213 163.792 74.704C164.101 74.576 164.421 74.512 164.752 74.512C165.157 74.512 165.52 74.6133 165.84 74.816C166.16 75.0187 166.416 75.344 166.608 75.792C166.8 76.24 166.896 76.832 166.896 77.568V82H165.776V77.6C165.776 77.088 165.717 76.6827 165.6 76.384C165.483 76.0747 165.323 75.856 165.12 75.728C164.917 75.5893 164.688 75.52 164.432 75.52C164.187 75.52 163.936 75.5733 163.68 75.68C163.435 75.7867 163.205 75.9413 162.992 76.144C162.779 76.336 162.603 76.5707 162.464 76.848C162.336 77.1253 162.272 77.44 162.272 77.792V82H161.152ZM187.376 82.176C186.544 82.176 185.904 81.9893 185.456 81.616C185.008 81.232 184.784 80.7467 184.784 80.16C184.784 79.7653 184.88 79.4133 185.072 79.104C185.264 78.784 185.525 78.5173 185.856 78.304C186.197 78.08 186.592 77.9093 187.04 77.792C187.488 77.6747 187.963 77.616 188.464 77.616C188.645 77.616 188.827 77.6213 189.008 77.632C189.2 77.632 189.397 77.6427 189.6 77.664C189.813 77.6747 190.032 77.696 190.256 77.728L190.288 78.608C190.096 78.576 189.899 78.5547 189.696 78.544C189.504 78.5227 189.312 78.5067 189.12 78.496C188.928 78.4853 188.741 78.48 188.56 78.48C188.176 78.48 187.824 78.512 187.504 78.576C187.184 78.64 186.907 78.736 186.672 78.864C186.437 78.992 186.256 79.1573 186.128 79.36C186 79.5627 185.936 79.808 185.936 80.096C185.936 80.32 185.973 80.512 186.048 80.672C186.133 80.8213 186.245 80.944 186.384 81.04C186.523 81.1253 186.683 81.1893 186.864 81.232C187.056 81.2747 187.264 81.296 187.488 81.296C187.904 81.296 188.272 81.232 188.592 81.104C188.923 80.9653 189.2 80.768 189.424 80.512C189.659 80.256 189.835 79.9413 189.952 79.568C190.069 79.1947 190.128 78.768 190.128 78.288C190.128 77.5627 190.043 76.9973 189.872 76.592C189.701 76.1867 189.445 75.8987 189.104 75.728C188.773 75.5573 188.347 75.472 187.824 75.472C187.472 75.472 187.125 75.5413 186.784 75.68C186.443 75.808 186.133 76.0107 185.856 76.288L185.296 75.552C185.637 75.2107 186.032 74.9547 186.48 74.784C186.928 74.6133 187.403 74.528 187.904 74.528C188.384 74.528 188.821 74.5867 189.216 74.704C189.611 74.8213 189.947 75.0187 190.224 75.296C190.512 75.5627 190.731 75.9253 190.88 76.384C191.04 76.8427 191.12 77.4187 191.12 78.112V82H189.872V80.88C189.733 81.1467 189.563 81.3653 189.36 81.536C189.168 81.7067 188.96 81.84 188.736 81.936C188.512 82.0213 188.283 82.08 188.048 82.112C187.813 82.1547 187.589 82.176 187.376 82.176ZM193.152 82V74.688H194.272V75.984C194.464 75.6853 194.688 75.4293 194.944 75.216C195.2 74.992 195.483 74.8213 195.792 74.704C196.101 74.576 196.421 74.512 196.752 74.512C197.157 74.512 197.52 74.6133 197.84 74.816C198.16 75.0187 198.416 75.344 198.608 75.792C198.8 76.24 198.896 76.832 198.896 77.568V82H197.776V77.6C197.776 77.088 197.717 76.6827 197.6 76.384C197.483 76.0747 197.323 75.856 197.12 75.728C196.917 75.5893 196.688 75.52 196.432 75.52C196.187 75.52 195.936 75.5733 195.68 75.68C195.435 75.7867 195.205 75.9413 194.992 76.144C194.779 76.336 194.603 76.5707 194.464 76.848C194.336 77.1253 194.272 77.44 194.272 77.792V82H193.152ZM204.016 82.16C203.611 82.16 203.221 82.1173 202.848 82.032C202.485 81.9467 202.139 81.8187 201.808 81.648C201.488 81.4773 201.189 81.264 200.912 81.008L201.552 79.92L201.648 79.776L201.744 79.84C201.765 79.9253 201.787 80.016 201.808 80.112C201.84 80.1973 201.915 80.304 202.032 80.432C202.256 80.656 202.523 80.8427 202.832 80.992C203.152 81.1307 203.557 81.2 204.048 81.2C204.443 81.2 204.773 81.152 205.04 81.056C205.317 80.96 205.531 80.8267 205.68 80.656C205.829 80.4747 205.904 80.2667 205.904 80.032C205.904 79.872 205.872 79.7333 205.808 79.616C205.744 79.488 205.637 79.3707 205.488 79.264C205.349 79.1573 205.163 79.0507 204.928 78.944C204.693 78.8373 204.405 78.7307 204.064 78.624C203.509 78.464 203.024 78.2773 202.608 78.064C202.192 77.8507 201.872 77.6053 201.648 77.328C201.424 77.04 201.312 76.7147 201.312 76.352C201.312 75.9787 201.413 75.6587 201.616 75.392C201.819 75.1147 202.117 74.9013 202.512 74.752C202.917 74.592 203.413 74.512 204 74.512C204.341 74.512 204.651 74.5387 204.928 74.592C205.205 74.6347 205.461 74.704 205.696 74.8C205.931 74.896 206.144 75.0187 206.336 75.168C206.539 75.3067 206.731 75.472 206.912 75.664L206.256 76.464L206.144 76.592L206.064 76.512C206.053 76.4267 206.027 76.3467 205.984 76.272C205.952 76.1867 205.877 76.0853 205.76 75.968C205.515 75.776 205.237 75.632 204.928 75.536C204.619 75.4293 204.32 75.376 204.032 75.376C203.605 75.376 203.237 75.4507 202.928 75.6C202.619 75.7493 202.464 75.9787 202.464 76.288C202.464 76.448 202.517 76.608 202.624 76.768C202.741 76.9173 202.949 77.072 203.248 77.232C203.547 77.3813 203.973 77.536 204.528 77.696C205.136 77.888 205.621 78.0853 205.984 78.288C206.357 78.48 206.624 78.704 206.784 78.96C206.955 79.216 207.04 79.52 207.04 79.872C207.04 80.2773 206.928 80.656 206.704 81.008C206.491 81.36 206.16 81.6427 205.712 81.856C205.264 82.0587 204.699 82.16 204.016 82.16ZM209.728 82.016L208.256 74.688H209.264L210.448 80.56L211.696 75.376H212.4L213.952 80.544C214.091 79.5947 214.203 78.816 214.288 78.208C214.384 77.6 214.453 77.104 214.496 76.72C214.549 76.3253 214.581 75.9947 214.592 75.728C214.613 75.4613 214.624 75.1947 214.624 74.928V74.688H215.696C215.589 75.5093 215.472 76.3307 215.344 77.152C215.227 77.9627 215.093 78.7733 214.944 79.584C214.805 80.3947 214.651 81.2053 214.48 82.016H213.392L212.048 77.28L210.768 82.016H209.728ZM220.352 82.16C219.819 82.16 219.333 82.08 218.896 81.92C218.459 81.7493 218.08 81.504 217.76 81.184C217.451 80.864 217.211 80.4693 217.04 80C216.869 79.52 216.784 78.976 216.784 78.368C216.784 77.7493 216.869 77.2 217.04 76.72C217.221 76.24 217.461 75.84 217.76 75.52C218.069 75.1893 218.427 74.9387 218.832 74.768C219.248 74.5973 219.685 74.512 220.144 74.512C220.56 74.512 220.949 74.5813 221.312 74.72C221.675 74.8587 221.989 75.072 222.256 75.36C222.523 75.6373 222.731 75.9947 222.88 76.432C223.04 76.8693 223.12 77.3867 223.12 77.984C223.12 78.0693 223.115 78.16 223.104 78.256C223.104 78.3413 223.099 78.4267 223.088 78.512H217.888C217.909 78.9813 217.989 79.392 218.128 79.744C218.267 80.0853 218.448 80.368 218.672 80.592C218.896 80.8053 219.152 80.9653 219.44 81.072C219.739 81.1787 220.053 81.232 220.384 81.232C220.64 81.232 220.88 81.2053 221.104 81.152C221.328 81.088 221.536 80.9973 221.728 80.88C221.931 80.752 222.112 80.5973 222.272 80.416L222.912 81.04C222.709 81.2853 222.475 81.4933 222.208 81.664C221.952 81.8347 221.669 81.9573 221.36 82.032C221.051 82.1173 220.715 82.16 220.352 82.16ZM217.936 77.616H221.952C221.952 77.2747 221.904 76.9707 221.808 76.704C221.723 76.4267 221.595 76.192 221.424 76C221.264 75.7973 221.067 75.648 220.832 75.552C220.608 75.4453 220.352 75.392 220.064 75.392C219.808 75.392 219.563 75.4347 219.328 75.52C219.104 75.6053 218.896 75.744 218.704 75.936C218.512 76.1173 218.347 76.3467 218.208 76.624C218.08 76.9013 217.989 77.232 217.936 77.616ZM225.904 74.688H227.104L227.056 76.816L226.912 76.576C226.976 76.2453 227.088 75.952 227.248 75.696C227.408 75.44 227.6 75.2267 227.824 75.056C228.048 74.8747 228.293 74.7413 228.56 74.656C228.827 74.56 229.104 74.512 229.392 74.512C229.776 74.512 230.128 74.5813 230.448 74.72C230.779 74.848 231.072 75.0453 231.328 75.312L230.816 76.208L230.752 76.352L230.64 76.288C230.619 76.2027 230.587 76.1227 230.544 76.048C230.501 75.9733 230.411 75.8827 230.272 75.776C230.101 75.6693 229.941 75.6 229.792 75.568C229.653 75.5253 229.493 75.504 229.312 75.504C229.045 75.504 228.779 75.5573 228.512 75.664C228.245 75.76 228 75.9147 227.776 76.128C227.563 76.3413 227.392 76.6133 227.264 76.944C227.136 77.2747 227.072 77.6693 227.072 78.128V82.016H225.904V74.688ZM19.376 99.176C18.544 99.176 17.904 98.9893 17.456 98.616C17.008 98.232 16.784 97.7467 16.784 97.16C16.784 96.7653 16.88 96.4133 17.072 96.104C17.264 95.784 17.5253 95.5173 17.856 95.304C18.1973 95.08 18.592 94.9093 19.04 94.792C19.488 94.6747 19.9627 94.616 20.464 94.616C20.6453 94.616 20.8267 94.6213 21.008 94.632C21.2 94.632 21.3973 94.6427 21.6 94.664C21.8133 94.6747 22.032 94.696 22.256 94.728L22.288 95.608C22.096 95.576 21.8987 95.5547 21.696 95.544C21.504 95.5227 21.312 95.5067 21.12 95.496C20.928 95.4853 20.7413 95.48 20.56 95.48C20.176 95.48 19.824 95.512 19.504 95.576C19.184 95.64 18.9067 95.736 18.672 95.864C18.4373 95.992 18.256 96.1573 18.128 96.36C18 96.5627 17.936 96.808 17.936 97.096C17.936 97.32 17.9733 97.512 18.048 97.672C18.1333 97.8213 18.2453 97.944 18.384 98.04C18.5227 98.1253 18.6827 98.1893 18.864 98.232C19.056 98.2747 19.264 98.296 19.488 98.296C19.904 98.296 20.272 98.232 20.592 98.104C20.9227 97.9653 21.2 97.768 21.424 97.512C21.6587 97.256 21.8347 96.9413 21.952 96.568C22.0693 96.1947 22.128 95.768 22.128 95.288C22.128 94.5627 22.0427 93.9973 21.872 93.592C21.7013 93.1867 21.4453 92.8987 21.104 92.728C20.7733 92.5573 20.3467 92.472 19.824 92.472C19.472 92.472 19.1253 92.5413 18.784 92.68C18.4427 92.808 18.1333 93.0107 17.856 93.288L17.296 92.552C17.6373 92.2107 18.032 91.9547 18.48 91.784C18.928 91.6133 19.4027 91.528 19.904 91.528C20.384 91.528 20.8213 91.5867 21.216 91.704C21.6107 91.8213 21.9467 92.0187 22.224 92.296C22.512 92.5627 22.7307 92.9253 22.88 93.384C23.04 93.8427 23.12 94.4187 23.12 95.112V99H21.872V97.88C21.7333 98.1467 21.5627 98.3653 21.36 98.536C21.168 98.7067 20.96 98.84 20.736 98.936C20.512 99.0213 20.2827 99.08 20.048 99.112C19.8133 99.1547 19.5893 99.176 19.376 99.176ZM28.016 99.16C27.6107 99.16 27.2213 99.1173 26.848 99.032C26.4853 98.9467 26.1387 98.8187 25.808 98.648C25.488 98.4773 25.1893 98.264 24.912 98.008L25.552 96.92L25.648 96.776L25.744 96.84C25.7653 96.9253 25.7867 97.016 25.808 97.112C25.84 97.1973 25.9147 97.304 26.032 97.432C26.256 97.656 26.5227 97.8427 26.832 97.992C27.152 98.1307 27.5573 98.2 28.048 98.2C28.4427 98.2 28.7733 98.152 29.04 98.056C29.3173 97.96 29.5307 97.8267 29.68 97.656C29.8293 97.4747 29.904 97.2667 29.904 97.032C29.904 96.872 29.872 96.7333 29.808 96.616C29.744 96.488 29.6373 96.3707 29.488 96.264C29.3493 96.1573 29.1627 96.0507 28.928 95.944C28.6933 95.8373 28.4053 95.7307 28.064 95.624C27.5093 95.464 27.024 95.2773 26.608 95.064C26.192 94.8507 25.872 94.6053 25.648 94.328C25.424 94.04 25.312 93.7147 25.312 93.352C25.312 92.9787 25.4133 92.6587 25.616 92.392C25.8187 92.1147 26.1173 91.9013 26.512 91.752C26.9173 91.592 27.4133 91.512 28 91.512C28.3413 91.512 28.6507 91.5387 28.928 91.592C29.2053 91.6347 29.4613 91.704 29.696 91.8C29.9307 91.896 30.144 92.0187 30.336 92.168C30.5387 92.3067 30.7307 92.472 30.912 92.664L30.256 93.464L30.144 93.592L30.064 93.512C30.0533 93.4267 30.0267 93.3467 29.984 93.272C29.952 93.1867 29.8773 93.0853 29.76 92.968C29.5147 92.776 29.2373 92.632 28.928 92.536C28.6187 92.4293 28.32 92.376 28.032 92.376C27.6053 92.376 27.2373 92.4507 26.928 92.6C26.6187 92.7493 26.464 92.9787 26.464 93.288C26.464 93.448 26.5173 93.608 26.624 93.768C26.7413 93.9173 26.9493 94.072 27.248 94.232C27.5467 94.3813 27.9733 94.536 28.528 94.696C29.136 94.888 29.6213 95.0853 29.984 95.288C30.3573 95.48 30.624 95.704 30.784 95.96C30.9547 96.216 31.04 96.52 31.04 96.872C31.04 97.2773 30.928 97.656 30.704 98.008C30.4907 98.36 30.16 98.6427 29.712 98.856C29.264 99.0587 28.6987 99.16 28.016 99.16ZM36.016 99.16C35.6107 99.16 35.2213 99.1173 34.848 99.032C34.4853 98.9467 34.1387 98.8187 33.808 98.648C33.488 98.4773 33.1893 98.264 32.912 98.008L33.552 96.92L33.648 96.776L33.744 96.84C33.7653 96.9253 33.7867 97.016 33.808 97.112C33.84 97.1973 33.9147 97.304 34.032 97.432C34.256 97.656 34.5227 97.8427 34.832 97.992C35.152 98.1307 35.5573 98.2 36.048 98.2C36.4427 98.2 36.7733 98.152 37.04 98.056C37.3173 97.96 37.5307 97.8267 37.68 97.656C37.8293 97.4747 37.904 97.2667 37.904 97.032C37.904 96.872 37.872 96.7333 37.808 96.616C37.744 96.488 37.6373 96.3707 37.488 96.264C37.3493 96.1573 37.1627 96.0507 36.928 95.944C36.6933 95.8373 36.4053 95.7307 36.064 95.624C35.5093 95.464 35.024 95.2773 34.608 95.064C34.192 94.8507 33.872 94.6053 33.648 94.328C33.424 94.04 33.312 93.7147 33.312 93.352C33.312 92.9787 33.4133 92.6587 33.616 92.392C33.8187 92.1147 34.1173 91.9013 34.512 91.752C34.9173 91.592 35.4133 91.512 36 91.512C36.3413 91.512 36.6507 91.5387 36.928 91.592C37.2053 91.6347 37.4613 91.704 37.696 91.8C37.9307 91.896 38.144 92.0187 38.336 92.168C38.5387 92.3067 38.7307 92.472 38.912 92.664L38.256 93.464L38.144 93.592L38.064 93.512C38.0533 93.4267 38.0267 93.3467 37.984 93.272C37.952 93.1867 37.8773 93.0853 37.76 92.968C37.5147 92.776 37.2373 92.632 36.928 92.536C36.6187 92.4293 36.32 92.376 36.032 92.376C35.6053 92.376 35.2373 92.4507 34.928 92.6C34.6187 92.7493 34.464 92.9787 34.464 93.288C34.464 93.448 34.5173 93.608 34.624 93.768C34.7413 93.9173 34.9493 94.072 35.248 94.232C35.5467 94.3813 35.9733 94.536 36.528 94.696C37.136 94.888 37.6213 95.0853 37.984 95.288C38.3573 95.48 38.624 95.704 38.784 95.96C38.9547 96.216 39.04 96.52 39.04 96.872C39.04 97.2773 38.928 97.656 38.704 98.008C38.4907 98.36 38.16 98.6427 37.712 98.856C37.264 99.0587 36.6987 99.16 36.016 99.16ZM44.352 99.16C43.8187 99.16 43.3333 99.08 42.896 98.92C42.4587 98.7493 42.08 98.504 41.76 98.184C41.4507 97.864 41.2107 97.4693 41.04 97C40.8693 96.52 40.784 95.976 40.784 95.368C40.784 94.7493 40.8693 94.2 41.04 93.72C41.2213 93.24 41.4613 92.84 41.76 92.52C42.0693 92.1893 42.4267 91.9387 42.832 91.768C43.248 91.5973 43.6853 91.512 44.144 91.512C44.56 91.512 44.9493 91.5813 45.312 91.72C45.6747 91.8587 45.9893 92.072 46.256 92.36C46.5227 92.6373 46.7307 92.9947 46.88 93.432C47.04 93.8693 47.12 94.3867 47.12 94.984C47.12 95.0693 47.1147 95.16 47.104 95.256C47.104 95.3413 47.0987 95.4267 47.088 95.512H41.888C41.9093 95.9813 41.9893 96.392 42.128 96.744C42.2667 97.0853 42.448 97.368 42.672 97.592C42.896 97.8053 43.152 97.9653 43.44 98.072C43.7387 98.1787 44.0533 98.232 44.384 98.232C44.64 98.232 44.88 98.2053 45.104 98.152C45.328 98.088 45.536 97.9973 45.728 97.88C45.9307 97.752 46.112 97.5973 46.272 97.416L46.912 98.04C46.7093 98.2853 46.4747 98.4933 46.208 98.664C45.952 98.8347 45.6693 98.9573 45.36 99.032C45.0507 99.1173 44.7147 99.16 44.352 99.16ZM41.936 94.616H45.952C45.952 94.2747 45.904 93.9707 45.808 93.704C45.7227 93.4267 45.5947 93.192 45.424 93C45.264 92.7973 45.0667 92.648 44.832 92.552C44.608 92.4453 44.352 92.392 44.064 92.392C43.808 92.392 43.5627 92.4347 43.328 92.52C43.104 92.6053 42.896 92.744 42.704 92.936C42.512 93.1173 42.3467 93.3467 42.208 93.624C42.08 93.9013 41.9893 94.232 41.936 94.616ZM49.904 91.688H51.104L51.056 93.816L50.912 93.576C50.976 93.2453 51.088 92.952 51.248 92.696C51.408 92.44 51.6 92.2267 51.824 92.056C52.048 91.8747 52.2933 91.7413 52.56 91.656C52.8267 91.56 53.104 91.512 53.392 91.512C53.776 91.512 54.128 91.5813 54.448 91.72C54.7787 91.848 55.072 92.0453 55.328 92.312L54.816 93.208L54.752 93.352L54.64 93.288C54.6187 93.2027 54.5867 93.1227 54.544 93.048C54.5013 92.9733 54.4107 92.8827 54.272 92.776C54.1013 92.6693 53.9413 92.6 53.792 92.568C53.6533 92.5253 53.4933 92.504 53.312 92.504C53.0453 92.504 52.7787 92.5573 52.512 92.664C52.2453 92.76 52 92.9147 51.776 93.128C51.5627 93.3413 51.392 93.6133 51.264 93.944C51.136 94.2747 51.072 94.6693 51.072 95.128V99.016H49.904V91.688ZM60.784 99.112C60.3147 99.112 59.9307 99.032 59.632 98.872C59.3333 98.712 59.104 98.4667 58.944 98.136C58.784 97.7947 58.6773 97.368 58.624 96.856C58.5813 96.344 58.5707 95.736 58.592 95.032L58.784 89.816L59.984 89.672L60.144 89.656L60.16 89.768C60.1067 89.8427 60.0587 89.9173 60.016 89.992C59.984 90.0667 59.9573 90.1947 59.936 90.376L59.792 92.184L59.84 92.472L59.728 95.112C59.696 95.9227 59.7173 96.552 59.792 97C59.8667 97.4373 60 97.7413 60.192 97.912C60.384 98.072 60.64 98.152 60.96 98.152C61.312 98.152 61.6213 98.0827 61.888 97.944C62.1653 97.8053 62.4533 97.6293 62.752 97.416L63.104 98.328C62.7413 98.5947 62.368 98.792 61.984 98.92C61.6 99.048 61.2 99.112 60.784 99.112ZM57.12 91.688H62.384V92.632H57.12V91.688ZM73.168 88.36H74.272H74.432V88.472C74.368 88.536 74.3253 88.6053 74.304 88.68C74.2933 88.7547 74.288 88.8827 74.288 89.064V92.984C74.48 92.6853 74.704 92.4293 74.96 92.216C75.2267 91.992 75.504 91.8213 75.792 91.704C76.0907 91.576 76.3893 91.512 76.688 91.512C77.1253 91.512 77.5093 91.6133 77.84 91.816C78.1813 92.0187 78.4427 92.344 78.624 92.792C78.816 93.24 78.912 93.832 78.912 94.568V99H77.792V94.6C77.792 94.088 77.7333 93.6827 77.616 93.384C77.4987 93.0747 77.3387 92.856 77.136 92.728C76.9333 92.5893 76.704 92.52 76.448 92.52C76.256 92.52 76.0587 92.552 75.856 92.616C75.6533 92.68 75.456 92.776 75.264 92.904C75.0827 93.032 74.9173 93.192 74.768 93.384C74.6187 93.5653 74.5013 93.7733 74.416 94.008C74.3307 94.2427 74.288 94.504 74.288 94.792V99H73.168V88.36ZM83.376 99.176C82.544 99.176 81.904 98.9893 81.456 98.616C81.008 98.232 80.784 97.7467 80.784 97.16C80.784 96.7653 80.88 96.4133 81.072 96.104C81.264 95.784 81.5253 95.5173 81.856 95.304C82.1973 95.08 82.592 94.9093 83.04 94.792C83.488 94.6747 83.9627 94.616 84.464 94.616C84.6453 94.616 84.8267 94.6213 85.008 94.632C85.2 94.632 85.3973 94.6427 85.6 94.664C85.8133 94.6747 86.032 94.696 86.256 94.728L86.288 95.608C86.096 95.576 85.8987 95.5547 85.696 95.544C85.504 95.5227 85.312 95.5067 85.12 95.496C84.928 95.4853 84.7413 95.48 84.56 95.48C84.176 95.48 83.824 95.512 83.504 95.576C83.184 95.64 82.9067 95.736 82.672 95.864C82.4373 95.992 82.256 96.1573 82.128 96.36C82 96.5627 81.936 96.808 81.936 97.096C81.936 97.32 81.9733 97.512 82.048 97.672C82.1333 97.8213 82.2453 97.944 82.384 98.04C82.5227 98.1253 82.6827 98.1893 82.864 98.232C83.056 98.2747 83.264 98.296 83.488 98.296C83.904 98.296 84.272 98.232 84.592 98.104C84.9227 97.9653 85.2 97.768 85.424 97.512C85.6587 97.256 85.8347 96.9413 85.952 96.568C86.0693 96.1947 86.128 95.768 86.128 95.288C86.128 94.5627 86.0427 93.9973 85.872 93.592C85.7013 93.1867 85.4453 92.8987 85.104 92.728C84.7733 92.5573 84.3467 92.472 83.824 92.472C83.472 92.472 83.1253 92.5413 82.784 92.68C82.4427 92.808 82.1333 93.0107 81.856 93.288L81.296 92.552C81.6373 92.2107 82.032 91.9547 82.48 91.784C82.928 91.6133 83.4027 91.528 83.904 91.528C84.384 91.528 84.8213 91.5867 85.216 91.704C85.6107 91.8213 85.9467 92.0187 86.224 92.296C86.512 92.5627 86.7307 92.9253 86.88 93.384C87.04 93.8427 87.12 94.4187 87.12 95.112V99H85.872V97.88C85.7333 98.1467 85.5627 98.3653 85.36 98.536C85.168 98.7067 84.96 98.84 84.736 98.936C84.512 99.0213 84.2827 99.08 84.048 99.112C83.8133 99.1547 83.5893 99.176 83.376 99.176ZM92.016 99.16C91.6107 99.16 91.2213 99.1173 90.848 99.032C90.4853 98.9467 90.1387 98.8187 89.808 98.648C89.488 98.4773 89.1893 98.264 88.912 98.008L89.552 96.92L89.648 96.776L89.744 96.84C89.7653 96.9253 89.7867 97.016 89.808 97.112C89.84 97.1973 89.9147 97.304 90.032 97.432C90.256 97.656 90.5227 97.8427 90.832 97.992C91.152 98.1307 91.5573 98.2 92.048 98.2C92.4427 98.2 92.7733 98.152 93.04 98.056C93.3173 97.96 93.5307 97.8267 93.68 97.656C93.8293 97.4747 93.904 97.2667 93.904 97.032C93.904 96.872 93.872 96.7333 93.808 96.616C93.744 96.488 93.6373 96.3707 93.488 96.264C93.3493 96.1573 93.1627 96.0507 92.928 95.944C92.6933 95.8373 92.4053 95.7307 92.064 95.624C91.5093 95.464 91.024 95.2773 90.608 95.064C90.192 94.8507 89.872 94.6053 89.648 94.328C89.424 94.04 89.312 93.7147 89.312 93.352C89.312 92.9787 89.4133 92.6587 89.616 92.392C89.8187 92.1147 90.1173 91.9013 90.512 91.752C90.9173 91.592 91.4133 91.512 92 91.512C92.3413 91.512 92.6507 91.5387 92.928 91.592C93.2053 91.6347 93.4613 91.704 93.696 91.8C93.9307 91.896 94.144 92.0187 94.336 92.168C94.5387 92.3067 94.7307 92.472 94.912 92.664L94.256 93.464L94.144 93.592L94.064 93.512C94.0533 93.4267 94.0267 93.3467 93.984 93.272C93.952 93.1867 93.8773 93.0853 93.76 92.968C93.5147 92.776 93.2373 92.632 92.928 92.536C92.6187 92.4293 92.32 92.376 92.032 92.376C91.6053 92.376 91.2373 92.4507 90.928 92.6C90.6187 92.7493 90.464 92.9787 90.464 93.288C90.464 93.448 90.5173 93.608 90.624 93.768C90.7413 93.9173 90.9493 94.072 91.248 94.232C91.5467 94.3813 91.9733 94.536 92.528 94.696C93.136 94.888 93.6213 95.0853 93.984 95.288C94.3573 95.48 94.624 95.704 94.784 95.96C94.9547 96.216 95.04 96.52 95.04 96.872C95.04 97.2773 94.928 97.656 94.704 98.008C94.4907 98.36 94.16 98.6427 93.712 98.856C93.264 99.0587 92.6987 99.16 92.016 99.16ZM97.168 88.36H98.272H98.432V88.472C98.368 88.536 98.3253 88.6053 98.304 88.68C98.2933 88.7547 98.288 88.8827 98.288 89.064V92.984C98.48 92.6853 98.704 92.4293 98.96 92.216C99.2267 91.992 99.504 91.8213 99.792 91.704C100.091 91.576 100.389 91.512 100.688 91.512C101.125 91.512 101.509 91.6133 101.84 91.816C102.181 92.0187 102.443 92.344 102.624 92.792C102.816 93.24 102.912 93.832 102.912 94.568V99H101.792V94.6C101.792 94.088 101.733 93.6827 101.616 93.384C101.499 93.0747 101.339 92.856 101.136 92.728C100.933 92.5893 100.704 92.52 100.448 92.52C100.256 92.52 100.059 92.552 99.856 92.616C99.6533 92.68 99.456 92.776 99.264 92.904C99.0827 93.032 98.9173 93.192 98.768 93.384C98.6187 93.5653 98.5013 93.7733 98.416 94.008C98.3307 94.2427 98.288 94.504 98.288 94.792V99H97.168V88.36ZM131.376 99.176C130.544 99.176 129.904 98.9893 129.456 98.616C129.008 98.232 128.784 97.7467 128.784 97.16C128.784 96.7653 128.88 96.4133 129.072 96.104C129.264 95.784 129.525 95.5173 129.856 95.304C130.197 95.08 130.592 94.9093 131.04 94.792C131.488 94.6747 131.963 94.616 132.464 94.616C132.645 94.616 132.827 94.6213 133.008 94.632C133.2 94.632 133.397 94.6427 133.6 94.664C133.813 94.6747 134.032 94.696 134.256 94.728L134.288 95.608C134.096 95.576 133.899 95.5547 133.696 95.544C133.504 95.5227 133.312 95.5067 133.12 95.496C132.928 95.4853 132.741 95.48 132.56 95.48C132.176 95.48 131.824 95.512 131.504 95.576C131.184 95.64 130.907 95.736 130.672 95.864C130.437 95.992 130.256 96.1573 130.128 96.36C130 96.5627 129.936 96.808 129.936 97.096C129.936 97.32 129.973 97.512 130.048 97.672C130.133 97.8213 130.245 97.944 130.384 98.04C130.523 98.1253 130.683 98.1893 130.864 98.232C131.056 98.2747 131.264 98.296 131.488 98.296C131.904 98.296 132.272 98.232 132.592 98.104C132.923 97.9653 133.2 97.768 133.424 97.512C133.659 97.256 133.835 96.9413 133.952 96.568C134.069 96.1947 134.128 95.768 134.128 95.288C134.128 94.5627 134.043 93.9973 133.872 93.592C133.701 93.1867 133.445 92.8987 133.104 92.728C132.773 92.5573 132.347 92.472 131.824 92.472C131.472 92.472 131.125 92.5413 130.784 92.68C130.443 92.808 130.133 93.0107 129.856 93.288L129.296 92.552C129.637 92.2107 130.032 91.9547 130.48 91.784C130.928 91.6133 131.403 91.528 131.904 91.528C132.384 91.528 132.821 91.5867 133.216 91.704C133.611 91.8213 133.947 92.0187 134.224 92.296C134.512 92.5627 134.731 92.9253 134.88 93.384C135.04 93.8427 135.12 94.4187 135.12 95.112V99H133.872V97.88C133.733 98.1467 133.563 98.3653 133.36 98.536C133.168 98.7067 132.96 98.84 132.736 98.936C132.512 99.0213 132.283 99.08 132.048 99.112C131.813 99.1547 131.589 99.176 131.376 99.176ZM137.152 99V91.688H138.272V92.984C138.464 92.6853 138.688 92.4293 138.944 92.216C139.2 91.992 139.483 91.8213 139.792 91.704C140.101 91.576 140.421 91.512 140.752 91.512C141.157 91.512 141.52 91.6133 141.84 91.816C142.16 92.0187 142.416 92.344 142.608 92.792C142.8 93.24 142.896 93.832 142.896 94.568V99H141.776V94.6C141.776 94.088 141.717 93.6827 141.6 93.384C141.483 93.0747 141.323 92.856 141.12 92.728C140.917 92.5893 140.688 92.52 140.432 92.52C140.187 92.52 139.936 92.5733 139.68 92.68C139.435 92.7867 139.205 92.9413 138.992 93.144C138.779 93.336 138.603 93.5707 138.464 93.848C138.336 94.1253 138.272 94.44 138.272 94.792V99H137.152ZM148.016 99.16C147.611 99.16 147.221 99.1173 146.848 99.032C146.485 98.9467 146.139 98.8187 145.808 98.648C145.488 98.4773 145.189 98.264 144.912 98.008L145.552 96.92L145.648 96.776L145.744 96.84C145.765 96.9253 145.787 97.016 145.808 97.112C145.84 97.1973 145.915 97.304 146.032 97.432C146.256 97.656 146.523 97.8427 146.832 97.992C147.152 98.1307 147.557 98.2 148.048 98.2C148.443 98.2 148.773 98.152 149.04 98.056C149.317 97.96 149.531 97.8267 149.68 97.656C149.829 97.4747 149.904 97.2667 149.904 97.032C149.904 96.872 149.872 96.7333 149.808 96.616C149.744 96.488 149.637 96.3707 149.488 96.264C149.349 96.1573 149.163 96.0507 148.928 95.944C148.693 95.8373 148.405 95.7307 148.064 95.624C147.509 95.464 147.024 95.2773 146.608 95.064C146.192 94.8507 145.872 94.6053 145.648 94.328C145.424 94.04 145.312 93.7147 145.312 93.352C145.312 92.9787 145.413 92.6587 145.616 92.392C145.819 92.1147 146.117 91.9013 146.512 91.752C146.917 91.592 147.413 91.512 148 91.512C148.341 91.512 148.651 91.5387 148.928 91.592C149.205 91.6347 149.461 91.704 149.696 91.8C149.931 91.896 150.144 92.0187 150.336 92.168C150.539 92.3067 150.731 92.472 150.912 92.664L150.256 93.464L150.144 93.592L150.064 93.512C150.053 93.4267 150.027 93.3467 149.984 93.272C149.952 93.1867 149.877 93.0853 149.76 92.968C149.515 92.776 149.237 92.632 148.928 92.536C148.619 92.4293 148.32 92.376 148.032 92.376C147.605 92.376 147.237 92.4507 146.928 92.6C146.619 92.7493 146.464 92.9787 146.464 93.288C146.464 93.448 146.517 93.608 146.624 93.768C146.741 93.9173 146.949 94.072 147.248 94.232C147.547 94.3813 147.973 94.536 148.528 94.696C149.136 94.888 149.621 95.0853 149.984 95.288C150.357 95.48 150.624 95.704 150.784 95.96C150.955 96.216 151.04 96.52 151.04 96.872C151.04 97.2773 150.928 97.656 150.704 98.008C150.491 98.36 150.16 98.6427 149.712 98.856C149.264 99.0587 148.699 99.16 148.016 99.16ZM153.728 99.016L152.256 91.688H153.264L154.448 97.56L155.696 92.376H156.4L157.952 97.544C158.091 96.5947 158.203 95.816 158.288 95.208C158.384 94.6 158.453 94.104 158.496 93.72C158.549 93.3253 158.581 92.9947 158.592 92.728C158.613 92.4613 158.624 92.1947 158.624 91.928V91.688H159.696C159.589 92.5093 159.472 93.3307 159.344 94.152C159.227 94.9627 159.093 95.7733 158.944 96.584C158.805 97.3947 158.651 98.2053 158.48 99.016H157.392L156.048 94.28L154.768 99.016H153.728ZM164.352 99.16C163.819 99.16 163.333 99.08 162.896 98.92C162.459 98.7493 162.08 98.504 161.76 98.184C161.451 97.864 161.211 97.4693 161.04 97C160.869 96.52 160.784 95.976 160.784 95.368C160.784 94.7493 160.869 94.2 161.04 93.72C161.221 93.24 161.461 92.84 161.76 92.52C162.069 92.1893 162.427 91.9387 162.832 91.768C163.248 91.5973 163.685 91.512 164.144 91.512C164.56 91.512 164.949 91.5813 165.312 91.72C165.675 91.8587 165.989 92.072 166.256 92.36C166.523 92.6373 166.731 92.9947 166.88 93.432C167.04 93.8693 167.12 94.3867 167.12 94.984C167.12 95.0693 167.115 95.16 167.104 95.256C167.104 95.3413 167.099 95.4267 167.088 95.512H161.888C161.909 95.9813 161.989 96.392 162.128 96.744C162.267 97.0853 162.448 97.368 162.672 97.592C162.896 97.8053 163.152 97.9653 163.44 98.072C163.739 98.1787 164.053 98.232 164.384 98.232C164.64 98.232 164.88 98.2053 165.104 98.152C165.328 98.088 165.536 97.9973 165.728 97.88C165.931 97.752 166.112 97.5973 166.272 97.416L166.912 98.04C166.709 98.2853 166.475 98.4933 166.208 98.664C165.952 98.8347 165.669 98.9573 165.36 99.032C165.051 99.1173 164.715 99.16 164.352 99.16ZM161.936 94.616H165.952C165.952 94.2747 165.904 93.9707 165.808 93.704C165.723 93.4267 165.595 93.192 165.424 93C165.264 92.7973 165.067 92.648 164.832 92.552C164.608 92.4453 164.352 92.392 164.064 92.392C163.808 92.392 163.563 92.4347 163.328 92.52C163.104 92.6053 162.896 92.744 162.704 92.936C162.512 93.1173 162.347 93.3467 162.208 93.624C162.08 93.9013 161.989 94.232 161.936 94.616ZM169.904 91.688H171.104L171.056 93.816L170.912 93.576C170.976 93.2453 171.088 92.952 171.248 92.696C171.408 92.44 171.6 92.2267 171.824 92.056C172.048 91.8747 172.293 91.7413 172.56 91.656C172.827 91.56 173.104 91.512 173.392 91.512C173.776 91.512 174.128 91.5813 174.448 91.72C174.779 91.848 175.072 92.0453 175.328 92.312L174.816 93.208L174.752 93.352L174.64 93.288C174.619 93.2027 174.587 93.1227 174.544 93.048C174.501 92.9733 174.411 92.8827 174.272 92.776C174.101 92.6693 173.941 92.6 173.792 92.568C173.653 92.5253 173.493 92.504 173.312 92.504C173.045 92.504 172.779 92.5573 172.512 92.664C172.245 92.76 172 92.9147 171.776 93.128C171.563 93.3413 171.392 93.6133 171.264 93.944C171.136 94.2747 171.072 94.6693 171.072 95.128V99.016H169.904V91.688ZM176.8 89.032H177.952H178.112V89.144C178.048 89.208 178.005 89.2773 177.984 89.352C177.973 89.4267 177.968 89.5547 177.968 89.736V93.288H181.872V89.032H183.024H183.184V89.144C183.12 89.208 183.077 89.2773 183.056 89.352C183.045 89.4267 183.04 89.5547 183.04 89.736V99H181.856V94.248H177.968V99H176.8V89.032ZM187.376 99.176C186.544 99.176 185.904 98.9893 185.456 98.616C185.008 98.232 184.784 97.7467 184.784 97.16C184.784 96.7653 184.88 96.4133 185.072 96.104C185.264 95.784 185.525 95.5173 185.856 95.304C186.197 95.08 186.592 94.9093 187.04 94.792C187.488 94.6747 187.963 94.616 188.464 94.616C188.645 94.616 188.827 94.6213 189.008 94.632C189.2 94.632 189.397 94.6427 189.6 94.664C189.813 94.6747 190.032 94.696 190.256 94.728L190.288 95.608C190.096 95.576 189.899 95.5547 189.696 95.544C189.504 95.5227 189.312 95.5067 189.12 95.496C188.928 95.4853 188.741 95.48 188.56 95.48C188.176 95.48 187.824 95.512 187.504 95.576C187.184 95.64 186.907 95.736 186.672 95.864C186.437 95.992 186.256 96.1573 186.128 96.36C186 96.5627 185.936 96.808 185.936 97.096C185.936 97.32 185.973 97.512 186.048 97.672C186.133 97.8213 186.245 97.944 186.384 98.04C186.523 98.1253 186.683 98.1893 186.864 98.232C187.056 98.2747 187.264 98.296 187.488 98.296C187.904 98.296 188.272 98.232 188.592 98.104C188.923 97.9653 189.2 97.768 189.424 97.512C189.659 97.256 189.835 96.9413 189.952 96.568C190.069 96.1947 190.128 95.768 190.128 95.288C190.128 94.5627 190.043 93.9973 189.872 93.592C189.701 93.1867 189.445 92.8987 189.104 92.728C188.773 92.5573 188.347 92.472 187.824 92.472C187.472 92.472 187.125 92.5413 186.784 92.68C186.443 92.808 186.133 93.0107 185.856 93.288L185.296 92.552C185.637 92.2107 186.032 91.9547 186.48 91.784C186.928 91.6133 187.403 91.528 187.904 91.528C188.384 91.528 188.821 91.5867 189.216 91.704C189.611 91.8213 189.947 92.0187 190.224 92.296C190.512 92.5627 190.731 92.9253 190.88 93.384C191.04 93.8427 191.12 94.4187 191.12 95.112V99H189.872V97.88C189.733 98.1467 189.563 98.3653 189.36 98.536C189.168 98.7067 188.96 98.84 188.736 98.936C188.512 99.0213 188.283 99.08 188.048 99.112C187.813 99.1547 187.589 99.176 187.376 99.176ZM196.016 99.16C195.611 99.16 195.221 99.1173 194.848 99.032C194.485 98.9467 194.139 98.8187 193.808 98.648C193.488 98.4773 193.189 98.264 192.912 98.008L193.552 96.92L193.648 96.776L193.744 96.84C193.765 96.9253 193.787 97.016 193.808 97.112C193.84 97.1973 193.915 97.304 194.032 97.432C194.256 97.656 194.523 97.8427 194.832 97.992C195.152 98.1307 195.557 98.2 196.048 98.2C196.443 98.2 196.773 98.152 197.04 98.056C197.317 97.96 197.531 97.8267 197.68 97.656C197.829 97.4747 197.904 97.2667 197.904 97.032C197.904 96.872 197.872 96.7333 197.808 96.616C197.744 96.488 197.637 96.3707 197.488 96.264C197.349 96.1573 197.163 96.0507 196.928 95.944C196.693 95.8373 196.405 95.7307 196.064 95.624C195.509 95.464 195.024 95.2773 194.608 95.064C194.192 94.8507 193.872 94.6053 193.648 94.328C193.424 94.04 193.312 93.7147 193.312 93.352C193.312 92.9787 193.413 92.6587 193.616 92.392C193.819 92.1147 194.117 91.9013 194.512 91.752C194.917 91.592 195.413 91.512 196 91.512C196.341 91.512 196.651 91.5387 196.928 91.592C197.205 91.6347 197.461 91.704 197.696 91.8C197.931 91.896 198.144 92.0187 198.336 92.168C198.539 92.3067 198.731 92.472 198.912 92.664L198.256 93.464L198.144 93.592L198.064 93.512C198.053 93.4267 198.027 93.3467 197.984 93.272C197.952 93.1867 197.877 93.0853 197.76 92.968C197.515 92.776 197.237 92.632 196.928 92.536C196.619 92.4293 196.32 92.376 196.032 92.376C195.605 92.376 195.237 92.4507 194.928 92.6C194.619 92.7493 194.464 92.9787 194.464 93.288C194.464 93.448 194.517 93.608 194.624 93.768C194.741 93.9173 194.949 94.072 195.248 94.232C195.547 94.3813 195.973 94.536 196.528 94.696C197.136 94.888 197.621 95.0853 197.984 95.288C198.357 95.48 198.624 95.704 198.784 95.96C198.955 96.216 199.04 96.52 199.04 96.872C199.04 97.2773 198.928 97.656 198.704 98.008C198.491 98.36 198.16 98.6427 197.712 98.856C197.264 99.0587 196.699 99.16 196.016 99.16ZM201.168 88.36H202.272H202.432V88.472C202.368 88.536 202.325 88.6053 202.304 88.68C202.293 88.7547 202.288 88.8827 202.288 89.064V92.984C202.48 92.6853 202.704 92.4293 202.96 92.216C203.227 91.992 203.504 91.8213 203.792 91.704C204.091 91.576 204.389 91.512 204.688 91.512C205.125 91.512 205.509 91.6133 205.84 91.816C206.181 92.0187 206.443 92.344 206.624 92.792C206.816 93.24 206.912 93.832 206.912 94.568V99H205.792V94.6C205.792 94.088 205.733 93.6827 205.616 93.384C205.499 93.0747 205.339 92.856 205.136 92.728C204.933 92.5893 204.704 92.52 204.448 92.52C204.256 92.52 204.059 92.552 203.856 92.616C203.653 92.68 203.456 92.776 203.264 92.904C203.083 93.032 202.917 93.192 202.768 93.384C202.619 93.5653 202.501 93.7733 202.416 94.008C202.331 94.2427 202.288 94.504 202.288 94.792V99H201.168V88.36Z" fill="#75BCFB"/>
</svg>
